<svg width="1280" height="640" viewBox="0 0 1280 640" fill="none" xmlns="http://www.w3.org/2000/svg">
<rect width="1280" height="640" fill="#282C34"/>
<path d="M458.577 409.056C458.812 404.171 457.145 399.385 453.926 395.703C452.178 394.089 450.121 392.844 447.879 392.045C445.637 391.246 443.256 390.909 440.881 391.055C434.164 390.958 427.684 393.531 422.863 398.206V457.498C422.863 458.899 422.306 460.241 421.316 461.232C420.325 462.222 418.982 462.778 417.581 462.778C416.18 462.778 414.837 462.222 413.846 461.232C412.856 460.241 412.299 458.899 412.299 457.498V355.331C412.299 353.931 412.856 352.588 413.846 351.598C414.837 350.608 416.18 350.052 417.581 350.052C418.982 350.052 420.325 350.608 421.316 351.598C422.306 352.588 422.863 353.931 422.863 355.331V386.084C425.627 384.627 428.545 383.482 431.562 382.669C434.591 381.8 437.73 381.382 440.881 381.428C444.923 381.339 448.94 382.079 452.685 383.602C456.017 385.014 459.068 387.012 461.692 389.503C464.184 392.126 466.183 395.176 467.595 398.507C468.999 402.284 469.735 406.277 469.77 410.307V457.809C469.77 459.21 469.213 460.553 468.223 461.543C467.232 462.533 465.889 463.089 464.488 463.089C463.087 463.089 461.744 462.533 460.753 461.543C459.763 460.553 459.206 459.21 459.206 457.809V409.056H458.577Z" fill="white"/>
<path d="M494.298 386.384C494.298 384.984 494.854 383.641 495.845 382.651C496.835 381.661 498.179 381.105 499.58 381.105C500.98 381.105 502.324 381.661 503.314 382.651C504.305 383.641 504.861 384.984 504.861 386.384V457.187C504.861 458.587 504.305 459.93 503.314 460.921C502.324 461.911 500.98 462.467 499.58 462.467C498.179 462.467 496.835 461.911 495.845 460.921C494.854 459.93 494.298 458.587 494.298 457.187V386.384Z" fill="white"/>
<path d="M576.311 457.187C573.633 458.968 570.7 460.329 567.611 461.224C564.583 462.093 561.443 462.511 558.293 462.465C554.251 462.555 550.233 461.815 546.488 460.291C543.112 458.964 540.046 456.956 537.481 454.391C534.915 451.827 532.906 448.762 531.579 445.387C530.174 441.609 529.438 437.616 529.404 433.586V409.363C529.314 405.322 530.055 401.306 531.579 397.563C532.875 394.172 534.888 391.1 537.481 388.559C540.106 386.068 543.156 384.07 546.488 382.658C550.225 381.107 554.248 380.366 558.293 380.484C562.349 380.486 566.4 380.798 570.409 381.418C574.353 381.975 578.213 383.018 581.902 384.521C583.381 385.087 584.672 386.056 585.629 387.318C586.596 388.565 587.14 390.088 587.182 391.666V467.117C587.271 471.158 586.531 475.174 585.007 478.918C583.71 482.309 581.697 485.38 579.105 487.922C576.48 490.412 573.429 492.411 570.097 493.822C566.319 495.226 562.324 495.962 558.293 495.996C554.529 496.044 550.773 495.628 547.111 494.755C543.495 493.944 539.962 492.8 536.558 491.337C535.606 491.003 534.789 490.37 534.229 489.531C533.669 488.693 533.396 487.695 533.453 486.688C533.46 485.29 534.018 483.952 535.007 482.963C535.996 481.975 537.335 481.417 538.733 481.41C539.484 481.512 540.217 481.722 540.908 482.032C543.738 483.253 546.644 484.29 549.607 485.136C552.53 486.004 555.567 486.423 558.615 486.377C561.041 486.49 563.464 486.077 565.716 485.166C567.968 484.255 569.996 482.868 571.66 481.099C574.883 477.296 576.544 472.414 576.311 467.436V457.187V457.187ZM576.311 393.837C570.587 392.001 564.615 391.058 558.604 391.04C553.718 390.805 548.93 392.471 545.247 395.689C543.606 397.483 542.348 399.592 541.548 401.887C540.749 404.183 540.425 406.617 540.597 409.041V434.838C540.361 439.722 542.028 444.508 545.247 448.19C547.041 449.83 549.151 451.088 551.447 451.888C553.744 452.687 556.179 453.01 558.604 452.839C561.905 452.851 565.176 452.218 568.234 450.976C571.311 449.891 574.082 448.08 576.311 445.698V393.837Z" fill="white"/>
<path d="M656.767 409.056C657.003 404.171 655.336 399.385 652.117 395.703C650.369 394.089 648.312 392.844 646.07 392.045C643.828 391.246 641.447 390.909 639.071 391.055C632.355 390.958 625.875 393.531 621.053 398.206V457.498C621.053 458.899 620.497 460.241 619.506 461.232C618.516 462.222 617.173 462.778 615.772 462.778C614.371 462.778 613.028 462.222 612.037 461.232C611.047 460.241 610.49 458.899 610.49 457.498V355.331C610.49 353.931 611.047 352.588 612.037 351.598C613.028 350.608 614.371 350.052 615.772 350.052C617.173 350.052 618.516 350.608 619.506 351.598C620.497 352.588 621.053 353.931 621.053 355.331V386.084C623.818 384.627 626.736 383.482 629.753 382.669C632.781 381.8 635.921 381.382 639.071 381.428C643.114 381.339 647.131 382.079 650.876 383.602C654.208 385.014 657.259 387.012 659.883 389.503C662.374 392.126 664.373 395.176 665.785 398.507C667.19 402.284 667.926 406.277 667.96 410.307V457.809C667.96 459.21 667.404 460.553 666.413 461.543C665.423 462.533 664.079 463.089 662.679 463.089C661.278 463.089 659.934 462.533 658.944 461.543C657.953 460.553 657.397 459.21 657.397 457.809V409.056H656.767Z" fill="white"/>
<path d="M690.94 402.844C690.947 399.877 691.473 396.934 692.492 394.148C693.454 391.594 694.935 389.267 696.842 387.314C698.681 385.415 700.906 383.933 703.367 382.966C705.946 381.975 708.681 381.449 711.444 381.414C715.207 381.399 718.958 381.816 722.626 382.655C723.818 382.966 724.896 383.613 725.731 384.518C726.156 384.975 726.484 385.513 726.698 386.1C726.911 386.686 727.004 387.31 726.972 387.933C726.968 389.33 726.412 390.669 725.425 391.659C724.438 392.648 723.101 393.209 721.703 393.218C721.266 393.264 720.826 393.154 720.462 392.907C719.951 392.773 719.433 392.669 718.909 392.596C717.668 392.285 716.423 392.285 715.182 391.974C713.957 391.716 712.705 391.612 711.455 391.662C710.183 391.627 708.919 391.857 707.741 392.339C706.564 392.821 705.501 393.543 704.619 394.459C703.641 395.553 702.891 396.83 702.411 398.216C701.93 399.602 701.73 401.069 701.821 402.533V457.498C701.821 458.899 701.265 460.241 700.275 461.232C699.284 462.222 697.941 462.778 696.54 462.778C695.139 462.778 693.796 462.222 692.805 461.232C691.815 460.241 691.258 458.899 691.258 457.498V402.844H690.94Z" fill="white"/>
<path d="M792.831 451.909C792.789 453.487 792.245 455.01 791.278 456.257C790.321 457.519 789.03 458.488 787.551 459.054C783.807 460.313 779.962 461.249 776.058 461.85C772.05 462.481 767.999 462.793 763.942 462.783C754.312 462.783 747.169 460.609 742.196 455.95C739.84 453.738 738.004 451.031 736.822 448.024C735.64 445.016 735.14 441.784 735.361 438.56C735.198 435.34 735.724 432.123 736.903 429.122C738.081 426.121 739.886 423.406 742.196 421.156C744.768 418.886 747.863 417.289 751.204 416.508C755.367 415.456 759.647 414.935 763.942 414.956H781.649V405.018C781.77 403.015 781.411 401.012 780.602 399.176C779.793 397.339 778.558 395.722 776.998 394.459C773.476 391.955 769.195 390.748 764.883 391.044C761.833 390.977 758.793 391.396 755.875 392.285C752.734 393.296 749.713 394.65 746.868 396.322C746.165 396.898 745.291 397.226 744.382 397.255C743.709 397.314 743.031 397.234 742.39 397.02C741.749 396.807 741.158 396.464 740.655 396.014C740.158 395.53 739.764 394.95 739.497 394.31C739.231 393.67 739.096 392.982 739.102 392.288C739.124 391.337 739.394 390.408 739.884 389.593C740.375 388.778 741.069 388.105 741.9 387.64C745.458 385.414 749.333 383.739 753.393 382.673C757.254 381.699 761.216 381.178 765.197 381.121C768.672 381.133 772.127 381.656 775.45 382.673C778.602 383.549 781.556 385.025 784.149 387.021C786.678 389.004 788.701 391.558 790.051 394.473C791.573 397.671 792.318 401.182 792.226 404.722V451.909H792.831ZM781.96 424.893H764.253C760.995 424.74 757.736 425.16 754.623 426.134C752.485 426.746 750.553 427.926 749.032 429.549C747.802 430.729 746.939 432.239 746.546 433.897C746.187 435.423 745.979 436.98 745.924 438.546C745.997 440.216 746.205 441.877 746.546 443.513C747.001 445.235 747.852 446.827 749.032 448.162C750.552 449.785 752.485 450.965 754.623 451.577C757.736 452.55 760.995 452.97 764.253 452.817C770.266 452.824 776.242 451.88 781.96 450.021V424.893Z" fill="white"/>
<path d="M844.395 462.78C840.353 462.869 836.335 462.129 832.591 460.606C829.215 459.279 826.148 457.27 823.583 454.706C821.018 452.142 819.009 449.076 817.681 445.701C816.276 441.924 815.541 437.931 815.506 433.901V409.678C815.234 405.856 815.786 402.02 817.126 398.43C818.466 394.839 820.562 391.579 823.272 388.87C825.983 386.16 829.244 384.065 832.835 382.725C836.427 381.386 840.264 380.834 844.088 381.106C847.238 381.06 850.378 381.478 853.406 382.347C856.423 383.16 859.341 384.306 862.106 385.762V355.01C862.106 353.609 862.662 352.266 863.652 351.276C864.643 350.286 865.986 349.73 867.387 349.73C868.788 349.73 870.131 350.286 871.122 351.276C872.112 352.266 872.669 353.609 872.669 355.01V451.598C872.627 453.176 872.083 454.699 871.116 455.946C870.159 457.208 868.868 458.177 867.389 458.743C863.645 460.002 859.8 460.937 855.896 461.539C852.138 462.481 848.268 462.898 844.395 462.78V462.78ZM826.688 434.831C826.453 439.715 828.12 444.501 831.339 448.183C833.087 449.798 835.144 451.042 837.386 451.841C839.628 452.64 842.009 452.977 844.384 452.832C850.499 452.839 856.578 451.895 862.402 450.035V397.255C859.991 395.022 857.132 393.329 854.014 392.288C850.899 391.296 847.654 390.773 844.384 390.736C842.009 390.591 839.628 390.928 837.386 391.727C835.144 392.526 833.087 393.77 831.339 395.385C829.698 397.179 828.439 399.288 827.64 401.583C826.84 403.879 826.517 406.313 826.688 408.737V434.831Z" fill="white"/>
<path d="M898.142 386.384C898.142 384.984 898.698 383.641 899.689 382.651C900.679 381.661 902.022 381.105 903.423 381.105C904.824 381.105 906.167 381.661 907.158 382.651C908.148 383.641 908.705 384.984 908.705 386.384V457.187C908.705 458.587 908.148 459.93 907.158 460.92C906.167 461.911 904.824 462.467 903.423 462.467C902.022 462.467 900.679 461.911 899.689 460.92C898.698 459.93 898.142 458.587 898.142 457.187V386.384ZM499.581 369.614C497.365 369.587 495.246 368.695 493.679 367.128C492.879 366.371 492.245 365.456 491.817 364.441C491.389 363.426 491.176 362.333 491.193 361.232C491.278 359.028 492.162 356.931 493.679 355.331C494.437 354.531 495.353 353.897 496.369 353.469C497.385 353.041 498.479 352.829 499.581 352.846C501.785 352.931 503.883 353.815 505.484 355.331C506.284 356.089 506.919 357.005 507.347 358.02C507.775 359.036 507.987 360.13 507.97 361.232C507.943 363.447 507.051 365.565 505.484 367.132C504.725 367.932 503.809 368.565 502.793 368.992C501.777 369.42 500.683 369.631 499.581 369.614V369.614Z" fill="white"/>
<path d="M980.151 386.384C980.151 384.984 980.707 383.641 981.698 382.651C982.688 381.661 984.032 381.105 985.432 381.105C986.833 381.105 988.177 381.661 989.167 382.651C990.158 383.641 990.714 384.984 990.714 386.384V451.909C990.783 453.455 990.348 454.981 989.473 456.257C988.564 457.439 987.395 458.396 986.057 459.054C982.303 460.278 978.46 461.213 974.563 461.85C970.555 462.469 966.504 462.781 962.448 462.783C958.626 463.042 954.793 462.483 951.205 461.144C947.616 459.806 944.354 457.718 941.636 455.02C936.397 449.381 933.603 441.9 933.863 434.208V386.384C933.863 384.984 934.419 383.641 935.41 382.651C936.4 381.661 937.744 381.105 939.144 381.105C940.545 381.105 941.889 381.661 942.879 382.651C943.87 383.641 944.426 384.984 944.426 386.384V434.831C944.191 439.715 945.857 444.501 949.076 448.183C950.871 449.823 952.98 451.081 955.277 451.881C957.573 452.68 960.008 453.003 962.433 452.832C968.446 452.838 974.422 451.894 980.14 450.035L980.151 386.384Z" fill="white"/>
<path d="M1024.57 422.408C1020.94 420.785 1017.67 418.463 1014.94 415.574C1012.01 411.888 1010.56 407.233 1010.9 402.533C1010.81 399.489 1011.56 396.478 1013.08 393.837C1014.39 391.16 1016.31 388.822 1018.67 387.003C1021.03 385.013 1023.78 383.533 1026.75 382.655C1029.86 381.662 1033.11 381.139 1036.38 381.103C1039.84 380.998 1043.29 381.416 1046.63 382.344C1049.62 382.946 1052.54 383.884 1055.33 385.14C1056.33 385.526 1057.2 386.207 1057.81 387.093C1058.42 387.98 1058.74 389.031 1058.74 390.107C1058.75 390.755 1058.61 391.396 1058.35 391.986C1058.08 392.576 1057.68 393.1 1057.19 393.522C1056.69 393.972 1056.1 394.314 1055.46 394.528C1054.81 394.741 1054.14 394.821 1053.46 394.763C1052.71 394.661 1051.98 394.451 1051.29 394.141C1046.2 391.88 1040.7 390.716 1035.13 390.726C1033.57 390.78 1032.01 390.989 1030.48 391.348C1028.92 391.643 1027.43 392.279 1026.13 393.211C1024.8 394.031 1023.72 395.216 1023.03 396.626C1022.15 398.129 1021.72 399.853 1021.79 401.593C1021.64 404.211 1022.53 406.782 1024.27 408.745C1025.88 410.19 1027.65 411.44 1029.55 412.471L1044.16 418.371C1048.56 420.141 1052.49 422.904 1055.65 426.445C1058.5 430.075 1060.03 434.565 1060 439.179C1060.01 442.277 1059.38 445.344 1058.14 448.183C1056.85 450.969 1055.06 453.495 1052.86 455.635C1050.53 457.82 1047.78 459.51 1044.78 460.602C1041.61 461.846 1038.24 462.478 1034.84 462.465C1031.07 462.548 1027.31 462.131 1023.66 461.224C1020.34 460.414 1017.11 459.269 1014.03 457.809C1013.03 457.441 1012.19 456.754 1011.63 455.855C1011.06 454.957 1010.82 453.897 1010.92 452.842C1010.93 451.445 1011.49 450.106 1012.47 449.118C1013.46 448.129 1014.8 447.571 1016.2 447.564C1016.64 447.519 1017.08 447.629 1017.44 447.875C1017.75 447.875 1018.06 448.187 1018.68 448.498C1023.84 450.949 1029.44 452.323 1035.14 452.535C1038.61 452.652 1042.02 451.555 1044.77 449.431C1046.11 448.481 1047.2 447.224 1047.96 445.766C1048.72 444.307 1049.11 442.689 1049.12 441.046C1049.25 438.243 1048.37 435.485 1046.63 433.282C1044.54 431.098 1041.99 429.4 1039.16 428.308L1024.57 422.408Z" fill="white"/>
<path d="M902.799 369.614C900.582 369.587 898.464 368.695 896.896 367.128C896.096 366.371 895.461 365.455 895.033 364.439C894.605 363.424 894.393 362.33 894.41 361.228C894.496 359.025 895.379 356.928 896.896 355.328C897.654 354.527 898.57 353.893 899.586 353.465C900.602 353.037 901.696 352.825 902.799 352.843C905.003 352.927 907.101 353.811 908.701 355.328C909.502 356.085 910.137 357.001 910.565 358.017C910.993 359.032 911.205 360.126 911.187 361.228C911.161 363.444 910.269 365.562 908.701 367.129C907.134 368.696 905.015 369.588 902.799 369.614V369.614Z" fill="white"/>
<path d="M345.811 475.514C327.873 475.005 310.61 468.561 296.729 457.191C309.804 454.285 322.096 448.592 332.765 440.499C343.435 432.406 352.23 422.105 358.549 410.3C362.883 420.623 365.101 431.71 365.074 442.905C365.02 448.63 364.5 454.342 363.522 459.983L361.969 468.369C359.138 471.091 356.013 473.49 352.651 475.521L345.811 475.514Z" fill="white"/>
<path d="M302.943 490.107C296.014 490.094 289.118 489.153 282.439 487.31C266.356 483.323 251.827 474.635 240.706 462.356C229.584 450.077 222.376 434.764 220 418.371C220.856 416.562 221.583 414.694 222.175 412.782C222.503 411.272 223.025 409.81 223.727 408.433C227.428 399.354 232.908 391.106 239.843 384.173C246.779 377.241 255.03 371.764 264.113 368.065C259.255 378.461 256.81 389.819 256.959 401.292C256.959 443.216 288.334 477.373 331.513 485.136C322.364 488.489 312.687 490.173 302.943 490.107V490.107Z" fill="white"/>
<path d="M222.175 386.388C234.537 368.581 253.381 356.32 274.673 352.228C279.979 351.082 285.4 350.561 290.827 350.676C305.493 350.789 319.877 354.714 332.566 362.064C345.256 369.414 355.815 379.937 363.207 392.599C371.905 407.489 376.514 424.411 376.567 441.653V448.176C384.849 434.692 389.454 419.275 389.924 403.459C389.549 381.068 380.441 359.709 364.541 343.932C348.642 328.156 327.208 319.21 304.807 319C290.786 318.96 276.975 322.401 264.613 329.014C252.251 335.627 241.725 345.204 233.979 356.887C233.979 356.887 223.727 372.725 222.175 386.388Z" fill="white"/>
<g filter="url(#filter0_bf_2_27)">
<circle cx="657" cy="163" r="128" fill="white"/>
<circle cx="657" cy="163" r="128" fill="black" fill-opacity="0.85"/>
</g>
<path d="M725 100.995L737.586 78.3326L729.749 73.8577L717.162 96.5199L725 100.995ZM713.904 166.453L706.066 161.979L694.235 183.152L702.073 187.627L713.904 166.453ZM682.694 158.25L690.532 162.725L703.118 140.063L695.281 135.588L682.694 158.25ZM738.162 104.274L726.331 125.448L734.169 129.923L746 108.749L738.162 104.274ZM710.206 154.371L718.043 158.846L729.875 137.672L722.037 133.197L710.206 154.371ZM697.779 195.362L689.941 190.887L684.911 199.983L677.074 187.012L686.097 170.909L678.26 166.434L671.753 178.063L663.916 165.092L725.44 54.4748L717.603 50L682.104 113.668C680.622 113.516 679.146 113.37 677.664 113.37H677.219C672.667 113.377 668.173 114.395 664.056 116.352L662.725 117.098C659.837 118.37 656.706 118.981 653.556 118.889H653.111C650.116 118.894 647.151 118.284 644.397 117.098L643.215 116.352C638.959 114.17 634.231 113.094 629.457 113.219H629.012C624.435 113.149 619.912 114.225 615.849 116.352L614.813 117.098C611.925 118.368 608.794 118.979 605.644 118.889H605.199C602.197 118.964 599.218 118.352 596.485 117.098L595.744 116.503L595.449 116.352C591.338 114.211 586.763 113.134 582.136 113.219H581.691C576.91 113.01 572.16 114.091 567.933 116.352L572.517 124.252C575.405 122.981 578.536 122.369 581.686 122.461H581.981C584.983 122.386 587.962 122.999 590.695 124.252L591.436 124.848L591.731 124.999C595.843 127.14 600.418 128.216 605.044 128.132H605.489C610.27 128.341 615.02 127.259 619.248 124.999L620.284 124.252C623.016 122.999 625.996 122.386 628.998 122.461H629.293C632.441 122.384 635.569 122.995 638.462 124.252L639.643 124.999C643.705 127.125 648.228 128.202 652.806 128.132H653.396C658.112 128.307 662.795 127.282 667.014 125.15L668.345 124.403C671.075 123.141 674.057 122.529 677.059 122.613L668.186 138.419C664.684 137.089 660.981 136.383 657.24 136.33H656.354C651.803 136.337 647.308 137.355 643.191 139.312L641.86 140.058C638.972 141.33 635.841 141.941 632.691 141.849H632.241C629.246 141.854 626.281 141.244 623.527 140.058L622.346 139.312C618.09 137.13 613.361 136.054 608.588 136.179H608.142C603.565 136.109 599.042 137.185 594.98 139.312L593.944 140.058C591.055 141.328 587.925 141.94 584.775 141.849H584.315C581.313 141.924 578.334 141.312 575.601 140.058L574.86 139.463L574.565 139.312C570.454 137.171 565.879 136.094 561.252 136.179H560.807C556.026 135.97 551.276 137.051 547.049 139.312L551.633 147.212C554.521 145.941 557.652 145.329 560.802 145.421H561.097C564.099 145.346 567.078 145.958 569.811 147.212L570.552 147.807L570.847 147.959C574.958 150.099 579.533 151.176 584.16 151.092H584.605C589.386 151.301 594.136 150.219 598.364 147.959L599.399 147.212C602.132 145.958 605.112 145.346 608.113 145.421H608.559C611.709 145.319 614.843 145.931 617.728 147.212L618.909 147.959C622.971 150.085 627.494 151.162 632.071 151.092H632.662C637.375 151.265 642.055 150.24 646.27 148.11L647.601 147.363C650.384 146.088 653.42 145.475 656.475 145.572H656.77C659.125 145.584 661.466 145.936 663.722 146.617L655.584 161.081H533V170.177H603.998L662.575 266.798L670.267 262.026L614.654 170.045H630.334L693.344 274.718L701.037 269.946L640.834 170.045H656.218L720.265 275.909L727.958 271.137L690.236 208.796L697.779 195.362ZM712.423 104.855L699.836 127.517L707.674 131.992L720.26 109.33L712.423 104.855Z" fill="#CD7925"/>
<path d="M168.158 590V556.88H174.014V590H168.158ZM182.174 590V556.88H188.558L203.246 580.496V556.88H209.102V590H202.766L188.03 566.384V590H182.174ZM214.115 558.032L214.883 556.88H219.971L228.179 584.672H229.091L237.299 556.88H242.435L243.155 558.032L233.363 590H223.859L214.115 558.032ZM247.647 582.176V564.704C247.647 559.488 250.255 556.88 255.471 556.88H266.463C271.679 556.88 274.287 559.488 274.287 564.704V582.176C274.287 587.392 271.679 590 266.463 590H255.471C250.255 590 247.647 587.392 247.647 582.176ZM253.503 582.608C253.503 583.984 254.207 584.672 255.615 584.672H266.319C267.727 584.672 268.431 583.984 268.431 582.608V564.272C268.431 562.896 267.727 562.208 266.319 562.208H255.615C254.207 562.208 253.503 562.896 253.503 564.272V582.608ZM281.491 582.176V564.704C281.491 559.488 284.099 556.88 289.315 556.88H302.371L305.203 559.088V562.208H289.459C288.051 562.208 287.347 562.896 287.347 564.272V582.608C287.347 583.984 288.051 584.672 289.459 584.672H305.203V587.792L302.371 590H289.315C284.099 590 281.491 587.392 281.491 582.176ZM311.689 590V556.88H333.961V562.208H317.545V570.176H332.521V575.504H317.545V584.672H333.961V590H311.689ZM351.955 590V556.88H359.155L369.091 578.096L379.027 556.88H386.227V590H380.323V566.864L371.587 585.488H366.547L357.811 566.864V590H351.955ZM391.209 588.848L401.433 556.88H410.553L420.729 588.848L420.009 590H415.065L412.809 582.704H399.129L396.825 590H391.977L391.209 588.848ZM400.761 577.376H411.225L406.425 562.208H405.513L400.761 577.376ZM425.736 590V556.88H432.12L446.808 580.496V556.88H452.664V590H446.328L431.592 566.384V590H425.736ZM457.678 588.848L467.902 556.88H477.022L487.198 588.848L486.478 590H481.534L479.278 582.704H465.598L463.294 590H458.446L457.678 588.848ZM467.23 577.376H477.694L472.894 562.208H471.982L467.23 577.376ZM491.725 582.176V564.704C491.725 559.488 494.333 556.88 499.549 556.88H513.613L516.445 559.088V562.208H499.693C498.285 562.208 497.581 562.896 497.581 564.272V582.608C497.581 583.984 498.285 584.672 499.693 584.672H511.549V575.504H504.541V570.176H517.405V590H499.549C494.333 590 491.725 587.392 491.725 582.176ZM524.596 590V556.88H546.868V562.208H530.452V570.176H545.428V575.504H530.452V584.672H546.868V590H524.596ZM553.33 590V556.88H560.53L570.466 578.096L580.402 556.88H587.602V590H581.698V566.864L572.962 585.488H567.922L559.186 566.864V590H553.33ZM595.752 590V556.88H618.024V562.208H601.608V570.176H616.584V575.504H601.608V584.672H618.024V590H595.752ZM624.486 590V556.88H630.87L645.558 580.496V556.88H651.414V590H645.078L630.342 566.384V590H624.486ZM656.668 562.208V556.88H683.404V562.208H672.988V590H667.084V562.208H656.668ZM697.501 558.032L698.317 556.88H703.117L709.021 584.672H709.549L715.837 560.24H721.645L727.885 584.672H728.461L734.365 556.88H739.165L739.981 558.032L733.117 590H723.661L718.717 570.512L713.821 590H704.413L697.501 558.032ZM745.471 590V556.88H767.743V562.208H751.327V570.176H766.303V575.504H751.327V584.672H767.743V590H745.471ZM774.205 590V556.88H789.661C794.877 556.88 797.485 559.488 797.485 564.704V567.728C797.485 568.816 797.165 569.744 796.525 570.512L794.845 572.528L796.861 574.208C797.917 575.072 798.445 576.352 798.445 578.048V582.176C798.445 587.392 795.837 590 790.621 590H774.205ZM780.061 584.672H790.477C791.885 584.672 792.589 583.984 792.589 582.608V577.568C792.589 576.192 791.885 575.504 790.477 575.504H780.061V584.672ZM780.061 570.176H789.517C790.925 570.176 791.629 569.472 791.629 568.064V564.272C791.629 562.896 790.925 562.208 789.517 562.208H780.061V570.176ZM813.74 588.848L823.964 556.88H833.084L843.26 588.848L842.54 590H837.596L835.34 582.704H821.66L819.356 590H814.508L813.74 588.848ZM823.292 577.376H833.756L828.956 562.208H828.044L823.292 577.376ZM848.268 590V556.88H864.204C869.42 556.88 872.028 559.488 872.028 564.704V571.088C872.028 576.272 869.42 578.864 864.204 578.864H854.124V590H848.268ZM854.124 573.536H864.06C865.468 573.536 866.172 572.832 866.172 571.424V564.272C866.172 562.896 865.468 562.208 864.06 562.208H854.124V573.536ZM878.736 590V556.88H894.672C899.888 556.88 902.496 559.488 902.496 564.704V571.088C902.496 576.272 899.888 578.864 894.672 578.864H884.592V590H878.736ZM884.592 573.536H894.528C895.936 573.536 896.64 572.832 896.64 571.424V564.272C896.64 562.896 895.936 562.208 894.528 562.208H884.592V573.536ZM909.205 590V556.88H915.061V584.672H930.037V590H909.205ZM935.268 590V556.88H941.124V590H935.268ZM948.803 582.176V564.704C948.803 559.488 951.411 556.88 956.627 556.88H969.683L972.515 559.088V562.208H956.771C955.363 562.208 954.659 562.896 954.659 564.272V582.608C954.659 583.984 955.363 584.672 956.771 584.672H972.515V587.792L969.683 590H956.627C951.411 590 948.803 587.392 948.803 582.176ZM975.834 588.848L986.058 556.88H995.178L1005.35 588.848L1004.63 590H999.69L997.434 582.704H983.754L981.45 590H976.602L975.834 588.848ZM985.386 577.376H995.85L991.05 562.208H990.138L985.386 577.376ZM1005.04 562.208V556.88H1031.78V562.208H1021.36V590H1015.46V562.208H1005.04ZM1037.03 590V556.88H1042.89V590H1037.03ZM1050.57 582.176V564.704C1050.57 559.488 1053.18 556.88 1058.39 556.88H1069.38C1074.6 556.88 1077.21 559.488 1077.21 564.704V582.176C1077.21 587.392 1074.6 590 1069.38 590H1058.39C1053.18 590 1050.57 587.392 1050.57 582.176ZM1056.42 582.608C1056.42 583.984 1057.13 584.672 1058.54 584.672H1069.24C1070.65 584.672 1071.35 583.984 1071.35 582.608V564.272C1071.35 562.896 1070.65 562.208 1069.24 562.208H1058.54C1057.13 562.208 1056.42 562.896 1056.42 564.272V582.608ZM1084.89 590V556.88H1091.28L1105.96 580.496V556.88H1111.82V590H1105.48L1090.75 566.384V590H1084.89Z" fill="white"/>
<defs>
<filter id="filter0_bf_2_27" x="519" y="25" width="276" height="276" filterUnits="userSpaceOnUse" color-interpolation-filters="sRGB">
<feFlood flood-opacity="0" result="BackgroundImageFix"/>
<feGaussianBlur in="BackgroundImage" stdDeviation="5"/>
<feComposite in2="SourceAlpha" operator="in" result="effect1_backgroundBlur_2_27"/>
<feBlend mode="normal" in="SourceGraphic" in2="effect1_backgroundBlur_2_27" result="shape"/>
<feGaussianBlur stdDeviation="5" result="effect2_foregroundBlur_2_27"/>
</filter>
</defs>
</svg>
