<svg width="1280" height="640" viewBox="0 0 1280 640" fill="none" xmlns="http://www.w3.org/2000/svg">
<rect width="1280" height="640" fill="#282C34"/>
<path d="M458.577 409.056C458.812 404.171 457.145 399.385 453.926 395.703C452.178 394.089 450.121 392.844 447.879 392.045C445.637 391.246 443.256 390.909 440.881 391.055C434.164 390.958 427.684 393.531 422.863 398.206V457.498C422.863 458.899 422.306 460.241 421.316 461.232C420.325 462.222 418.982 462.778 417.581 462.778C416.18 462.778 414.837 462.222 413.846 461.232C412.856 460.241 412.299 458.899 412.299 457.498V355.331C412.299 353.931 412.856 352.588 413.846 351.598C414.837 350.608 416.18 350.052 417.581 350.052C418.982 350.052 420.325 350.608 421.316 351.598C422.306 352.588 422.863 353.931 422.863 355.331V386.084C425.627 384.627 428.545 383.482 431.562 382.669C434.591 381.8 437.73 381.382 440.881 381.428C444.923 381.339 448.94 382.079 452.685 383.602C456.017 385.014 459.068 387.012 461.692 389.503C464.184 392.126 466.183 395.176 467.595 398.507C468.999 402.284 469.735 406.277 469.77 410.307V457.809C469.77 459.21 469.213 460.553 468.223 461.543C467.232 462.533 465.889 463.089 464.488 463.089C463.087 463.089 461.744 462.533 460.753 461.543C459.763 460.553 459.206 459.21 459.206 457.809V409.056H458.577Z" fill="white"/>
<path d="M494.298 386.384C494.298 384.984 494.854 383.641 495.845 382.651C496.835 381.661 498.179 381.105 499.58 381.105C500.98 381.105 502.324 381.661 503.314 382.651C504.305 383.641 504.861 384.984 504.861 386.384V457.187C504.861 458.587 504.305 459.93 503.314 460.921C502.324 461.911 500.98 462.467 499.58 462.467C498.179 462.467 496.835 461.911 495.845 460.921C494.854 459.93 494.298 458.587 494.298 457.187V386.384Z" fill="white"/>
<path d="M576.311 457.187C573.633 458.968 570.7 460.329 567.611 461.224C564.583 462.093 561.443 462.511 558.293 462.465C554.251 462.555 550.233 461.815 546.488 460.291C543.112 458.964 540.046 456.956 537.481 454.391C534.915 451.827 532.906 448.762 531.579 445.387C530.174 441.609 529.438 437.616 529.404 433.586V409.363C529.314 405.322 530.055 401.306 531.579 397.563C532.875 394.172 534.888 391.1 537.481 388.559C540.106 386.068 543.156 384.07 546.488 382.658C550.225 381.107 554.248 380.366 558.293 380.484C562.349 380.486 566.4 380.798 570.409 381.418C574.353 381.975 578.213 383.018 581.902 384.521C583.381 385.087 584.672 386.056 585.629 387.318C586.596 388.565 587.14 390.088 587.182 391.666V467.117C587.271 471.158 586.531 475.174 585.007 478.918C583.71 482.309 581.697 485.38 579.104 487.922C576.48 490.412 573.429 492.411 570.097 493.822C566.319 495.226 562.324 495.962 558.293 495.996C554.529 496.044 550.773 495.628 547.111 494.755C543.495 493.944 539.962 492.8 536.558 491.337C535.606 491.003 534.789 490.37 534.229 489.531C533.669 488.693 533.396 487.695 533.453 486.688C533.46 485.29 534.018 483.952 535.007 482.963C535.996 481.975 537.335 481.417 538.733 481.41C539.484 481.512 540.217 481.722 540.908 482.032C543.738 483.253 546.644 484.29 549.607 485.136C552.53 486.004 555.567 486.423 558.615 486.377C561.041 486.49 563.464 486.077 565.716 485.166C567.968 484.255 569.996 482.868 571.66 481.099C574.883 477.296 576.544 472.414 576.311 467.436V457.187ZM576.311 393.837C570.587 392.001 564.615 391.058 558.604 391.04C553.718 390.805 548.93 392.471 545.247 395.689C543.606 397.483 542.348 399.592 541.548 401.887C540.749 404.183 540.425 406.617 540.597 409.041V434.838C540.361 439.722 542.028 444.508 545.247 448.19C547.041 449.83 549.151 451.088 551.447 451.888C553.744 452.687 556.179 453.01 558.604 452.839C561.905 452.851 565.176 452.218 568.234 450.976C571.311 449.891 574.082 448.08 576.311 445.698V393.837Z" fill="white"/>
<path d="M656.767 409.056C657.003 404.171 655.336 399.385 652.117 395.703C650.369 394.089 648.312 392.844 646.07 392.045C643.828 391.246 641.447 390.909 639.071 391.055C632.355 390.958 625.875 393.531 621.053 398.206V457.498C621.053 458.899 620.497 460.241 619.506 461.232C618.516 462.222 617.173 462.778 615.772 462.778C614.371 462.778 613.028 462.222 612.037 461.232C611.047 460.241 610.49 458.899 610.49 457.498V355.331C610.49 353.931 611.047 352.588 612.037 351.598C613.028 350.608 614.371 350.052 615.772 350.052C617.173 350.052 618.516 350.608 619.506 351.598C620.497 352.588 621.053 353.931 621.053 355.331V386.084C623.818 384.627 626.736 383.482 629.753 382.669C632.781 381.8 635.921 381.382 639.071 381.428C643.114 381.339 647.131 382.079 650.876 383.602C654.208 385.014 657.259 387.012 659.883 389.503C662.374 392.126 664.373 395.176 665.785 398.507C667.19 402.284 667.926 406.277 667.96 410.307V457.809C667.96 459.21 667.404 460.553 666.413 461.543C665.423 462.533 664.079 463.089 662.679 463.089C661.278 463.089 659.934 462.533 658.944 461.543C657.953 460.553 657.397 459.21 657.397 457.809V409.056H656.767Z" fill="white"/>
<path d="M690.94 402.844C690.947 399.877 691.473 396.934 692.492 394.148C693.454 391.594 694.935 389.267 696.842 387.314C698.681 385.415 700.906 383.933 703.367 382.966C705.946 381.975 708.681 381.449 711.444 381.414C715.207 381.399 718.958 381.816 722.626 382.655C723.818 382.966 724.896 383.613 725.731 384.518C726.156 384.975 726.484 385.513 726.698 386.1C726.911 386.686 727.004 387.31 726.972 387.933C726.968 389.33 726.412 390.669 725.425 391.659C724.438 392.648 723.101 393.209 721.703 393.218C721.266 393.264 720.826 393.154 720.462 392.907C719.951 392.773 719.433 392.669 718.909 392.596C717.668 392.285 716.423 392.285 715.182 391.974C713.957 391.716 712.705 391.612 711.455 391.662C710.183 391.627 708.919 391.857 707.741 392.339C706.564 392.821 705.501 393.543 704.619 394.459C703.641 395.553 702.891 396.83 702.411 398.216C701.93 399.602 701.73 401.069 701.821 402.533V457.498C701.821 458.899 701.265 460.241 700.275 461.232C699.284 462.222 697.941 462.778 696.54 462.778C695.139 462.778 693.796 462.222 692.805 461.232C691.815 460.241 691.258 458.899 691.258 457.498V402.844H690.94Z" fill="white"/>
<path d="M792.831 451.909C792.789 453.487 792.245 455.01 791.278 456.257C790.321 457.519 789.03 458.488 787.551 459.054C783.807 460.313 779.962 461.249 776.058 461.85C772.05 462.481 767.999 462.793 763.942 462.783C754.312 462.783 747.169 460.609 742.196 455.95C739.84 453.738 738.004 451.031 736.822 448.024C735.64 445.016 735.14 441.784 735.361 438.56C735.198 435.34 735.724 432.123 736.903 429.122C738.081 426.121 739.886 423.406 742.196 421.156C744.768 418.886 747.863 417.289 751.204 416.508C755.367 415.456 759.647 414.935 763.942 414.956H781.649V405.018C781.77 403.015 781.411 401.012 780.602 399.176C779.793 397.339 778.558 395.722 776.998 394.459C773.476 391.955 769.195 390.748 764.883 391.044C761.833 390.977 758.793 391.396 755.875 392.285C752.734 393.296 749.713 394.65 746.868 396.322C746.165 396.898 745.291 397.226 744.382 397.255C743.709 397.314 743.031 397.234 742.39 397.02C741.749 396.807 741.158 396.464 740.655 396.014C740.158 395.53 739.764 394.95 739.497 394.31C739.231 393.67 739.096 392.982 739.102 392.288C739.124 391.337 739.394 390.408 739.884 389.593C740.375 388.778 741.069 388.105 741.9 387.64C745.458 385.414 749.333 383.739 753.393 382.673C757.254 381.699 761.216 381.178 765.197 381.121C768.672 381.133 772.127 381.656 775.45 382.673C778.602 383.549 781.556 385.025 784.149 387.021C786.678 389.004 788.701 391.558 790.051 394.473C791.573 397.671 792.318 401.182 792.226 404.722V451.909H792.831ZM781.96 424.893H764.253C760.995 424.74 757.736 425.16 754.623 426.134C752.485 426.746 750.553 427.926 749.032 429.549C747.802 430.729 746.939 432.239 746.546 433.897C746.187 435.423 745.979 436.98 745.924 438.546C745.997 440.216 746.205 441.877 746.546 443.513C747.001 445.235 747.852 446.827 749.032 448.162C750.552 449.785 752.485 450.965 754.623 451.577C757.736 452.55 760.995 452.97 764.253 452.817C770.266 452.824 776.242 451.88 781.96 450.021V424.893Z" fill="white"/>
<path d="M844.395 462.78C840.353 462.869 836.335 462.129 832.591 460.606C829.215 459.279 826.148 457.27 823.583 454.706C821.018 452.142 819.009 449.076 817.681 445.701C816.276 441.924 815.541 437.931 815.506 433.901V409.678C815.234 405.856 815.786 402.02 817.126 398.43C818.466 394.839 820.562 391.579 823.272 388.87C825.983 386.16 829.244 384.065 832.835 382.725C836.427 381.386 840.264 380.834 844.088 381.106C847.238 381.06 850.378 381.478 853.406 382.347C856.423 383.16 859.341 384.306 862.106 385.762V355.01C862.106 353.609 862.662 352.266 863.652 351.276C864.643 350.286 865.986 349.73 867.387 349.73C868.788 349.73 870.131 350.286 871.122 351.276C872.112 352.266 872.669 353.609 872.669 355.01V451.598C872.627 453.176 872.083 454.699 871.116 455.946C870.159 457.208 868.868 458.177 867.389 458.743C863.645 460.002 859.8 460.937 855.896 461.539C852.138 462.481 848.268 462.898 844.395 462.78ZM826.688 434.831C826.453 439.715 828.12 444.501 831.339 448.183C833.087 449.798 835.144 451.042 837.386 451.841C839.628 452.64 842.009 452.977 844.384 452.832C850.499 452.839 856.578 451.895 862.402 450.035V397.255C859.991 395.022 857.132 393.329 854.014 392.288C850.899 391.296 847.654 390.773 844.384 390.736C842.009 390.591 839.628 390.928 837.386 391.727C835.144 392.526 833.087 393.77 831.339 395.385C829.698 397.179 828.439 399.288 827.64 401.583C826.84 403.879 826.517 406.313 826.688 408.737V434.831Z" fill="white"/>
<path d="M898.142 386.384C898.142 384.984 898.698 383.641 899.689 382.651C900.679 381.661 902.022 381.105 903.423 381.105C904.824 381.105 906.167 381.661 907.158 382.651C908.148 383.641 908.705 384.984 908.705 386.384V457.187C908.705 458.587 908.148 459.93 907.158 460.921C906.167 461.911 904.824 462.467 903.423 462.467C902.022 462.467 900.679 461.911 899.689 460.921C898.698 459.93 898.142 458.587 898.142 457.187V386.384ZM499.581 369.614C497.365 369.587 495.246 368.695 493.679 367.128C492.879 366.371 492.245 365.456 491.817 364.441C491.389 363.426 491.176 362.333 491.193 361.232C491.278 359.028 492.162 356.931 493.679 355.331C494.437 354.531 495.353 353.897 496.369 353.469C497.385 353.041 498.479 352.829 499.581 352.846C501.785 352.931 503.883 353.815 505.484 355.331C506.284 356.089 506.919 357.005 507.347 358.02C507.775 359.036 507.987 360.13 507.97 361.232C507.943 363.447 507.051 365.565 505.484 367.132C504.725 367.932 503.809 368.565 502.793 368.992C501.777 369.42 500.683 369.631 499.581 369.614Z" fill="white"/>
<path d="M980.151 386.384C980.151 384.984 980.707 383.641 981.698 382.651C982.688 381.661 984.032 381.105 985.432 381.105C986.833 381.105 988.177 381.661 989.167 382.651C990.158 383.641 990.714 384.984 990.714 386.384V451.909C990.783 453.455 990.348 454.981 989.473 456.257C988.564 457.439 987.395 458.396 986.057 459.054C982.303 460.278 978.46 461.213 974.563 461.85C970.555 462.469 966.504 462.781 962.448 462.783C958.626 463.042 954.793 462.483 951.205 461.144C947.616 459.806 944.354 457.718 941.636 455.02C936.397 449.381 933.603 441.9 933.863 434.208V386.384C933.863 384.984 934.419 383.641 935.41 382.651C936.4 381.661 937.744 381.105 939.144 381.105C940.545 381.105 941.889 381.661 942.879 382.651C943.87 383.641 944.426 384.984 944.426 386.384V434.831C944.191 439.715 945.857 444.501 949.076 448.183C950.871 449.823 952.98 451.081 955.277 451.881C957.573 452.68 960.008 453.003 962.433 452.832C968.446 452.838 974.422 451.894 980.14 450.035L980.151 386.384Z" fill="white"/>
<path d="M1024.57 422.408C1020.94 420.785 1017.67 418.463 1014.94 415.574C1012.01 411.888 1010.56 407.233 1010.9 402.533C1010.81 399.489 1011.56 396.478 1013.08 393.837C1014.39 391.16 1016.31 388.822 1018.67 387.003C1021.03 385.013 1023.78 383.533 1026.75 382.655C1029.86 381.662 1033.11 381.139 1036.38 381.103C1039.84 380.998 1043.29 381.416 1046.63 382.344C1049.62 382.946 1052.54 383.884 1055.33 385.14C1056.33 385.526 1057.2 386.207 1057.81 387.093C1058.42 387.98 1058.74 389.031 1058.74 390.107C1058.75 390.755 1058.61 391.396 1058.35 391.986C1058.08 392.576 1057.68 393.1 1057.19 393.522C1056.69 393.972 1056.1 394.314 1055.46 394.528C1054.81 394.741 1054.14 394.821 1053.46 394.763C1052.71 394.661 1051.98 394.451 1051.29 394.141C1046.2 391.88 1040.7 390.716 1035.13 390.726C1033.57 390.78 1032.01 390.989 1030.48 391.348C1028.92 391.643 1027.43 392.279 1026.13 393.211C1024.8 394.031 1023.72 395.216 1023.03 396.626C1022.15 398.129 1021.72 399.853 1021.79 401.593C1021.64 404.211 1022.53 406.782 1024.27 408.745C1025.88 410.19 1027.65 411.44 1029.55 412.471L1044.16 418.371C1048.56 420.141 1052.49 422.904 1055.65 426.445C1058.5 430.075 1060.03 434.564 1060 439.179C1060.01 442.277 1059.38 445.344 1058.14 448.183C1056.85 450.969 1055.06 453.495 1052.86 455.635C1050.53 457.82 1047.78 459.51 1044.78 460.602C1041.61 461.846 1038.24 462.478 1034.84 462.465C1031.07 462.548 1027.31 462.131 1023.66 461.224C1020.34 460.414 1017.11 459.269 1014.03 457.809C1013.03 457.441 1012.19 456.754 1011.63 455.855C1011.06 454.957 1010.82 453.897 1010.92 452.842C1010.93 451.445 1011.49 450.106 1012.47 449.118C1013.46 448.129 1014.8 447.571 1016.2 447.564C1016.64 447.519 1017.08 447.629 1017.44 447.875C1017.75 447.875 1018.06 448.187 1018.68 448.498C1023.84 450.949 1029.44 452.323 1035.14 452.535C1038.61 452.652 1042.02 451.555 1044.77 449.431C1046.11 448.481 1047.2 447.224 1047.96 445.766C1048.72 444.307 1049.11 442.689 1049.12 441.046C1049.25 438.243 1048.37 435.485 1046.63 433.282C1044.54 431.098 1041.99 429.4 1039.16 428.308L1024.57 422.408Z" fill="white"/>
<path d="M902.799 369.614C900.582 369.587 898.464 368.695 896.896 367.128C896.096 366.371 895.461 365.455 895.033 364.439C894.605 363.424 894.393 362.33 894.41 361.228C894.496 359.025 895.379 356.928 896.896 355.328C897.654 354.527 898.57 353.893 899.586 353.465C900.602 353.037 901.696 352.825 902.799 352.843C905.003 352.927 907.101 353.811 908.701 355.328C909.502 356.085 910.137 357.001 910.565 358.017C910.993 359.032 911.205 360.126 911.187 361.228C911.161 363.444 910.269 365.562 908.701 367.129C907.134 368.696 905.015 369.588 902.799 369.614Z" fill="white"/>
<path d="M345.811 475.514C327.873 475.005 310.61 468.561 296.729 457.191C309.804 454.285 322.096 448.592 332.765 440.499C343.435 432.406 352.23 422.105 358.549 410.3C362.883 420.623 365.101 431.71 365.074 442.905C365.02 448.63 364.5 454.342 363.522 459.983L361.969 468.369C359.138 471.091 356.013 473.49 352.651 475.521L345.811 475.514Z" fill="white"/>
<path d="M302.943 490.107C296.014 490.094 289.118 489.153 282.439 487.31C266.356 483.323 251.827 474.635 240.706 462.356C229.584 450.077 222.376 434.764 220 418.371C220.856 416.562 221.583 414.694 222.175 412.782C222.503 411.272 223.025 409.81 223.727 408.433C227.428 399.354 232.908 391.106 239.843 384.173C246.779 377.241 255.03 371.764 264.113 368.065C259.255 378.461 256.81 389.819 256.959 401.292C256.959 443.216 288.334 477.373 331.513 485.136C322.364 488.489 312.687 490.173 302.943 490.107Z" fill="white"/>
<path d="M222.175 386.388C234.537 368.581 253.381 356.32 274.673 352.228C279.979 351.082 285.4 350.561 290.827 350.676C305.493 350.789 319.877 354.714 332.566 362.064C345.256 369.414 355.815 379.937 363.207 392.599C371.905 407.489 376.514 424.411 376.567 441.653V448.176C384.849 434.692 389.454 419.275 389.924 403.459C389.549 381.068 380.441 359.709 364.541 343.932C348.642 328.156 327.208 319.21 304.807 319C290.786 318.96 276.975 322.401 264.613 329.014C252.251 335.627 241.725 345.204 233.979 356.887C233.979 356.887 223.727 372.725 222.175 386.388Z" fill="white"/>
<g filter="url(#filter0_bf_2_27)">
<circle cx="657" cy="163" r="128" fill="white"/>
<circle cx="657" cy="163" r="128" fill="black" fill-opacity="0.85"/>
</g>
<path d="M725 100.995L737.586 78.3326L729.749 73.8577L717.162 96.5199L725 100.995ZM713.904 166.453L706.066 161.979L694.235 183.152L702.073 187.627L713.904 166.453ZM682.694 158.25L690.532 162.725L703.118 140.063L695.281 135.588L682.694 158.25ZM738.162 104.274L726.331 125.448L734.169 129.923L746 108.749L738.162 104.274ZM710.206 154.371L718.043 158.846L729.875 137.672L722.037 133.197L710.206 154.371ZM697.779 195.362L689.941 190.887L684.911 199.983L677.074 187.012L686.097 170.909L678.26 166.434L671.753 178.063L663.916 165.092L725.44 54.4748L717.603 50L682.104 113.668C680.622 113.516 679.146 113.37 677.664 113.37H677.219C672.667 113.377 668.173 114.395 664.056 116.352L662.725 117.098C659.837 118.37 656.706 118.981 653.556 118.889H653.111C650.116 118.894 647.151 118.284 644.397 117.098L643.215 116.352C638.959 114.17 634.231 113.094 629.457 113.219H629.012C624.435 113.149 619.912 114.225 615.849 116.352L614.813 117.098C611.925 118.368 608.794 118.979 605.644 118.889H605.199C602.197 118.964 599.218 118.352 596.485 117.098L595.744 116.503L595.449 116.352C591.338 114.211 586.763 113.134 582.136 113.219H581.691C576.91 113.01 572.16 114.091 567.933 116.352L572.517 124.252C575.405 122.981 578.536 122.369 581.686 122.461H581.981C584.983 122.386 587.962 122.999 590.695 124.252L591.436 124.848L591.731 124.999C595.843 127.14 600.418 128.216 605.044 128.132H605.489C610.27 128.341 615.02 127.259 619.248 124.999L620.284 124.252C623.016 122.999 625.996 122.386 628.998 122.461H629.293C632.441 122.384 635.569 122.995 638.462 124.252L639.643 124.999C643.705 127.125 648.228 128.202 652.806 128.132H653.396C658.112 128.307 662.795 127.282 667.014 125.15L668.345 124.403C671.075 123.141 674.057 122.529 677.059 122.613L668.186 138.419C664.684 137.089 660.981 136.383 657.24 136.33H656.354C651.803 136.337 647.308 137.355 643.191 139.312L641.86 140.058C638.972 141.33 635.841 141.941 632.691 141.849H632.241C629.246 141.854 626.281 141.244 623.527 140.058L622.346 139.312C618.09 137.13 613.361 136.054 608.588 136.179H608.142C603.565 136.109 599.042 137.185 594.98 139.312L593.944 140.058C591.055 141.328 587.925 141.94 584.775 141.849H584.315C581.313 141.924 578.334 141.312 575.601 140.058L574.86 139.463L574.565 139.312C570.454 137.171 565.879 136.094 561.252 136.179H560.807C556.026 135.97 551.276 137.051 547.049 139.312L551.633 147.212C554.521 145.941 557.652 145.329 560.802 145.421H561.097C564.099 145.346 567.078 145.958 569.811 147.212L570.552 147.807L570.847 147.959C574.958 150.099 579.533 151.176 584.16 151.092H584.605C589.386 151.301 594.136 150.219 598.364 147.959L599.399 147.212C602.132 145.958 605.112 145.346 608.113 145.421H608.559C611.709 145.319 614.843 145.931 617.728 147.212L618.909 147.959C622.971 150.085 627.494 151.162 632.071 151.092H632.662C637.375 151.265 642.055 150.24 646.27 148.11L647.601 147.363C650.384 146.088 653.42 145.475 656.475 145.572H656.77C659.125 145.584 661.466 145.936 663.722 146.617L655.584 161.081H533V170.177H603.998L662.575 266.798L670.267 262.026L614.654 170.045H630.334L693.344 274.718L701.037 269.946L640.834 170.045H656.218L720.265 275.909L727.958 271.137L690.236 208.796L697.779 195.362ZM712.423 104.855L699.836 127.517L707.674 131.992L720.26 109.33L712.423 104.855Z" fill="#CD7925"/>
<path d="M162.202 590V556.88H169.114V590H162.202ZM176.967 590V556.88H184.455L197.607 578.624V556.88H204.519V590H197.031L183.879 568.256V590H176.967ZM209.333 558.176L210.197 556.88H216.293L223.829 583.76H224.597L232.181 556.88H238.229L239.093 558.176L229.685 590H218.741L209.333 558.176ZM243.425 581.936V564.944C243.425 559.568 246.113 556.88 251.489 556.88H262.433C267.809 556.88 270.497 559.568 270.497 564.944V581.936C270.497 587.312 267.809 590 262.433 590H251.489C246.113 590 243.425 587.312 243.425 581.936ZM250.337 582.32C250.337 583.28 250.817 583.76 251.777 583.76H262.145C263.105 583.76 263.585 583.28 263.585 582.32V564.56C263.585 563.6 263.105 563.12 262.145 563.12H251.777C250.817 563.12 250.337 563.6 250.337 564.56V582.32ZM277.409 581.936V564.944C277.409 559.568 280.097 556.88 285.473 556.88H298.289L301.505 559.376V563.12H285.761C284.801 563.12 284.321 563.6 284.321 564.56V582.32C284.321 583.28 284.801 583.76 285.761 583.76H301.505V587.504L298.289 590H285.473C280.097 590 277.409 587.312 277.409 581.936ZM307.842 590V556.88H330.498V563.12H314.754V569.84H329.058V576.08H314.754V583.76H330.498V590H307.842ZM348.342 590V556.88H356.598L365.91 576.752L375.222 556.88H383.478V590H376.566V569.072L368.79 585.68H363.03L355.254 569.072V590H348.342ZM388.302 588.704L398.142 556.88H408.702L418.542 588.704L417.678 590H411.918L409.902 583.28H396.942L394.926 590H389.166L388.302 588.704ZM398.814 577.04H408.03L403.806 563.12H403.038L398.814 577.04ZM423.342 590V556.88H430.83L443.982 578.624V556.88H450.894V590H443.406L430.254 568.256V590H423.342ZM455.708 588.704L465.548 556.88H476.108L485.948 588.704L485.084 590H479.324L477.308 583.28H464.348L462.332 590H456.572L455.708 588.704ZM466.22 577.04H475.436L471.212 563.12H470.444L466.22 577.04ZM490.269 581.936V564.944C490.269 559.568 492.957 556.88 498.333 556.88H512.205L515.421 559.376V563.12H498.621C497.661 563.12 497.181 563.6 497.181 564.56V582.32C497.181 583.28 497.661 583.76 498.621 583.76H509.469V576.08H503.133V569.84H516.381V590H498.333C492.957 590 490.269 587.312 490.269 581.936ZM523.28 590V556.88H545.936V563.12H530.192V569.84H544.496V576.08H530.192V583.76H545.936V590H523.28ZM552.249 590V556.88H560.505L569.817 576.752L579.129 556.88H587.385V590H580.473V569.072L572.697 585.68H566.937L559.161 569.072V590H552.249ZM595.28 590V556.88H617.936V563.12H602.192V569.84H616.496V576.08H602.192V583.76H617.936V590H595.28ZM624.249 590V556.88H631.737L644.889 578.624V556.88H651.801V590H644.312L631.161 568.256V590H624.249ZM656.902 563.12V556.88H683.974V563.12H673.894V590H666.982V563.12H656.902ZM698.016 558.176L698.976 556.88H704.64L709.968 583.76H710.496L716.208 560.048H723.024L728.736 583.76H729.264L734.592 556.88H740.256L741.216 558.176L734.736 590H723.744L719.616 572.48L715.488 590H704.496L698.016 558.176ZM746.499 590V556.88H769.155V563.12H753.411V569.84H767.715V576.08H753.411V583.76H769.155V590H746.499ZM775.467 590V556.88H791.115C796.491 556.88 799.179 559.568 799.179 564.944V567.824C799.179 568.912 798.859 569.84 798.219 570.608L796.539 572.624L798.555 574.304C799.611 575.168 800.139 576.448 800.139 578.144V581.936C800.139 587.312 797.451 590 792.075 590H775.467ZM782.379 583.76H791.787C792.747 583.76 793.227 583.28 793.227 582.32V577.52C793.227 576.56 792.747 576.08 791.787 576.08H782.379V583.76ZM782.379 569.84H790.827C791.787 569.84 792.267 569.36 792.267 568.4V564.56C792.267 563.6 791.787 563.12 790.827 563.12H782.379V569.84ZM815.239 588.704L825.079 556.88H835.639L845.479 588.704L844.615 590H838.855L836.839 583.28H823.879L821.863 590H816.103L815.239 588.704ZM825.751 577.04H834.967L830.743 563.12H829.975L825.751 577.04ZM850.28 590V556.88H866.408C871.784 556.88 874.472 559.568 874.472 564.944V571.376C874.472 576.752 871.784 579.44 866.408 579.44H857.192V590H850.28ZM857.192 573.2H866.12C867.08 573.2 867.56 572.72 867.56 571.76V564.56C867.56 563.6 867.08 563.12 866.12 563.12H857.192V573.2ZM880.889 590V556.88H897.017C902.393 556.88 905.081 559.568 905.081 564.944V571.376C905.081 576.752 902.393 579.44 897.017 579.44H887.801V590H880.889ZM887.801 573.2H896.729C897.689 573.2 898.169 572.72 898.169 571.76V564.56C898.169 563.6 897.689 563.12 896.729 563.12H887.801V573.2ZM911.499 590V556.88H918.411V583.76H932.715V590H911.499ZM937.795 590V556.88H944.707V590H937.795ZM952.081 581.936V564.944C952.081 559.568 954.769 556.88 960.145 556.88H972.961L976.177 559.376V563.12H960.433C959.473 563.12 958.993 563.6 958.993 564.56V582.32C958.993 583.28 959.473 583.76 960.433 583.76H976.177V587.504L972.961 590H960.145C954.769 590 952.081 587.312 952.081 581.936ZM979.442 588.704L989.282 556.88H999.842L1009.68 588.704L1008.82 590H1003.06L1001.04 583.28H988.082L986.066 590H980.306L979.442 588.704ZM989.954 577.04H999.17L994.946 563.12H994.178L989.954 577.04ZM1009.31 563.12V556.88H1036.38V563.12H1026.3V590H1019.39V563.12H1009.31ZM1041.48 590V556.88H1048.39V590H1041.48ZM1055.77 581.936V564.944C1055.77 559.568 1058.46 556.88 1063.83 556.88H1074.78C1080.15 556.88 1082.84 559.568 1082.84 564.944V581.936C1082.84 587.312 1080.15 590 1074.78 590H1063.83C1058.46 590 1055.77 587.312 1055.77 581.936ZM1062.68 582.32C1062.68 583.28 1063.16 583.76 1064.12 583.76H1074.49C1075.45 583.76 1075.93 583.28 1075.93 582.32V564.56C1075.93 563.6 1075.45 563.12 1074.49 563.12H1064.12C1063.16 563.12 1062.68 563.6 1062.68 564.56V582.32ZM1090.23 590V556.88H1097.72L1110.87 578.624V556.88H1117.78V590H1110.3L1097.14 568.256V590H1090.23Z" fill="#1976D2"/>
<path d="M162.202 590H160.202L162.202 592V590ZM162.202 556.88V554.88L160.202 556.88H162.202ZM169.114 556.88H171.114L169.114 554.88V556.88ZM169.114 590V592L171.114 590H169.114ZM164.202 590V556.88H160.202V590H164.202ZM162.202 558.88H169.114V554.88H162.202V558.88ZM167.114 556.88V590H171.114V556.88H167.114ZM169.114 588H162.202V592H169.114V588ZM176.967 590H174.967L176.967 592V590ZM176.967 556.88V554.88L174.967 556.88H176.967ZM184.455 556.88L186.167 555.845L184.455 554.88V556.88ZM197.607 578.624L195.896 579.659L199.607 578.624H197.607ZM197.607 556.88V554.88L195.607 556.88H197.607ZM204.519 556.88H206.519L204.519 554.88V556.88ZM204.519 590V592L206.519 590H204.519ZM197.031 590L195.32 591.035L197.031 592V590ZM183.879 568.256L185.591 567.221L181.879 568.256H183.879ZM183.879 590V592L185.879 590H183.879ZM178.967 590V556.88H174.967V590H178.967ZM176.967 558.88H184.455V554.88H176.967V558.88ZM182.744 557.915L195.896 579.659L199.319 577.589L186.167 555.845L182.744 557.915ZM199.607 578.624V556.88H195.607V578.624H199.607ZM197.607 558.88H204.519V554.88H197.607V558.88ZM202.519 556.88V590H206.519V556.88H202.519ZM204.519 588H197.031V592H204.519V588ZM198.743 588.965L185.591 567.221L182.168 569.291L195.32 591.035L198.743 588.965ZM181.879 568.256V590H185.879V568.256H181.879ZM183.879 588H176.967V592H183.879V588ZM209.333 558.176L207.669 557.067L207.415 558.743L209.333 558.176ZM210.197 556.88V554.88L208.533 555.771L210.197 556.88ZM216.293 556.88L218.218 556.34L216.293 554.88V556.88ZM223.829 583.76L221.903 584.3L223.829 585.76V583.76ZM224.597 583.76V585.76L226.522 584.303L224.597 583.76ZM232.181 556.88V554.88L230.256 556.337L232.181 556.88ZM238.229 556.88L239.893 555.771L238.229 554.88V556.88ZM239.093 558.176L241.011 558.743L240.757 557.067L239.093 558.176ZM229.685 590V592L231.603 590.567L229.685 590ZM218.741 590L216.823 590.567L218.741 592V590ZM210.997 559.285L211.861 557.989L208.533 555.771L207.669 557.067L210.997 559.285ZM210.197 558.88H216.293V554.88H210.197V558.88ZM214.367 557.42L221.903 584.3L225.755 583.22L218.218 556.34L214.367 557.42ZM223.829 585.76H224.597V581.76H223.829V585.76ZM226.522 584.303L234.106 557.423L230.256 556.337L222.672 583.217L226.522 584.303ZM232.181 558.88H238.229V554.88H232.181V558.88ZM236.565 557.989L237.429 559.285L240.757 557.067L239.893 555.771L236.565 557.989ZM237.175 557.609L227.767 589.433L231.603 590.567L241.011 558.743L237.175 557.609ZM229.685 588H218.741V592H229.685V588ZM220.659 589.433L211.251 557.609L207.415 558.743L216.823 590.567L220.659 589.433ZM245.425 581.936V564.944H241.425V581.936H245.425ZM245.425 564.944C245.425 562.564 246.018 561.147 246.855 560.31C247.692 559.474 249.109 558.88 251.489 558.88V554.88C248.492 554.88 245.878 555.63 244.027 557.482C242.175 559.333 241.425 561.948 241.425 564.944H245.425ZM251.489 558.88H262.433V554.88H251.489V558.88ZM262.433 558.88C264.812 558.88 266.23 559.474 267.067 560.31C267.903 561.147 268.497 562.564 268.497 564.944H272.497C272.497 561.948 271.746 559.333 269.895 557.482C268.044 555.63 265.429 554.88 262.433 554.88V558.88ZM268.497 564.944V581.936H272.497V564.944H268.497ZM268.497 581.936C268.497 584.316 267.903 585.733 267.067 586.57C266.23 587.406 264.812 588 262.433 588V592C265.429 592 268.044 591.25 269.895 589.398C271.746 587.547 272.497 584.932 272.497 581.936H268.497ZM262.433 588H251.489V592H262.433V588ZM251.489 588C249.109 588 247.692 587.406 246.855 586.57C246.018 585.733 245.425 584.316 245.425 581.936H241.425C241.425 584.932 242.175 587.547 244.027 589.398C245.878 591.25 248.492 592 251.489 592V588ZM248.337 582.32C248.337 583.108 248.535 584.067 249.283 584.814C250.03 585.562 250.988 585.76 251.777 585.76V581.76C251.605 581.76 251.844 581.718 252.111 581.986C252.378 582.253 252.337 582.492 252.337 582.32H248.337ZM251.777 585.76H262.145V581.76H251.777V585.76ZM262.145 585.76C262.933 585.76 263.892 585.562 264.639 584.814C265.386 584.067 265.585 583.108 265.585 582.32H261.585C261.585 582.492 261.543 582.253 261.811 581.986C262.078 581.718 262.316 581.76 262.145 581.76V585.76ZM265.585 582.32V564.56H261.585V582.32H265.585ZM265.585 564.56C265.585 563.772 265.386 562.813 264.639 562.066C263.892 561.318 262.933 561.12 262.145 561.12V565.12C262.316 565.12 262.078 565.162 261.811 564.894C261.543 564.627 261.585 564.388 261.585 564.56H265.585ZM262.145 561.12H251.777V565.12H262.145V561.12ZM251.777 561.12C250.988 561.12 250.03 561.318 249.283 562.066C248.535 562.813 248.337 563.772 248.337 564.56H252.337C252.337 564.388 252.378 564.627 252.111 564.894C251.844 565.162 251.605 565.12 251.777 565.12V561.12ZM248.337 564.56V582.32H252.337V564.56H248.337ZM298.289 556.88L299.515 555.3L298.289 554.88V556.88ZM301.505 559.376H303.505L302.731 557.796L301.505 559.376ZM301.505 563.12V565.12L303.505 563.12H301.505ZM301.505 583.76H303.505L301.505 581.76V583.76ZM301.505 587.504L302.731 589.084L303.505 587.504H301.505ZM298.289 590V592L299.515 591.58L298.289 590ZM279.409 581.936V564.944H275.409V581.936H279.409ZM279.409 564.944C279.409 562.564 280.003 561.147 280.839 560.31C281.676 559.474 283.093 558.88 285.473 558.88V554.88C282.477 554.88 279.862 555.63 278.011 557.482C276.16 559.333 275.409 561.948 275.409 564.944H279.409ZM285.473 558.88H298.289V554.88H285.473V558.88ZM297.063 558.46L300.279 560.956L302.731 557.796L299.515 555.3L297.063 558.46ZM299.505 559.376V563.12H303.505V559.376H299.505ZM301.505 561.12H285.761V565.12H301.505V561.12ZM285.761 561.12C284.973 561.12 284.014 561.318 283.267 562.066C282.52 562.813 282.321 563.772 282.321 564.56H286.321C286.321 564.388 286.363 564.627 286.095 564.894C285.828 565.162 285.589 565.12 285.761 565.12V561.12ZM282.321 564.56V582.32H286.321V564.56H282.321ZM282.321 582.32C282.321 583.108 282.52 584.067 283.267 584.814C284.014 585.562 284.973 585.76 285.761 585.76V581.76C285.589 581.76 285.828 581.718 286.095 581.986C286.363 582.253 286.321 582.492 286.321 582.32H282.321ZM285.761 585.76H301.505V581.76H285.761V585.76ZM299.505 583.76V587.504H303.505V583.76H299.505ZM300.279 585.924L297.063 588.42L299.515 591.58L302.731 589.084L300.279 585.924ZM298.289 588H285.473V592H298.289V588ZM285.473 588C283.093 588 281.676 587.406 280.839 586.57C280.003 585.733 279.409 584.316 279.409 581.936H275.409C275.409 584.932 276.16 587.547 278.011 589.398C279.862 591.25 282.477 592 285.473 592V588ZM307.842 590H305.842L307.842 592V590ZM307.842 556.88V554.88L305.842 556.88H307.842ZM330.498 556.88H332.498L330.498 554.88V556.88ZM330.498 563.12V565.12L332.498 563.12H330.498ZM314.754 563.12V561.12L312.754 563.12H314.754ZM314.754 569.84H312.754L314.754 571.84V569.84ZM329.058 569.84H331.058L329.058 567.84V569.84ZM329.058 576.08V578.08L331.058 576.08H329.058ZM314.754 576.08V574.08L312.754 576.08H314.754ZM314.754 583.76H312.754L314.754 585.76V583.76ZM330.498 583.76H332.498L330.498 581.76V583.76ZM330.498 590V592L332.498 590H330.498ZM309.842 590V556.88H305.842V590H309.842ZM307.842 558.88H330.498V554.88H307.842V558.88ZM328.498 556.88V563.12H332.498V556.88H328.498ZM330.498 561.12H314.754V565.12H330.498V561.12ZM312.754 563.12V569.84H316.754V563.12H312.754ZM314.754 571.84H329.058V567.84H314.754V571.84ZM327.058 569.84V576.08H331.058V569.84H327.058ZM329.058 574.08H314.754V578.08H329.058V574.08ZM312.754 576.08V583.76H316.754V576.08H312.754ZM314.754 585.76H330.498V581.76H314.754V585.76ZM328.498 583.76V590H332.498V583.76H328.498ZM330.498 588H307.842V592H330.498V588ZM348.342 590H346.342L348.342 592V590ZM348.342 556.88V554.88L346.342 556.88H348.342ZM356.598 556.88L358.409 556.031L356.598 554.88V556.88ZM365.91 576.752L364.099 577.601H367.721L365.91 576.752ZM375.222 556.88V554.88L373.411 556.031L375.222 556.88ZM383.478 556.88H385.478L383.478 554.88V556.88ZM383.478 590V592L385.478 590H383.478ZM376.566 590H374.566L376.566 592V590ZM376.566 569.072H378.566L374.755 568.224L376.566 569.072ZM368.79 585.68V587.68L370.602 586.528L368.79 585.68ZM363.03 585.68L361.219 586.528L363.03 587.68V585.68ZM355.254 569.072L357.066 568.224L353.254 569.072H355.254ZM355.254 590V592L357.254 590H355.254ZM350.342 590V556.88H346.342V590H350.342ZM348.342 558.88H356.598V554.88H348.342V558.88ZM354.787 557.729L364.099 577.601L367.721 575.903L358.409 556.031L354.787 557.729ZM367.721 577.601L377.033 557.729L373.411 556.031L364.099 575.903L367.721 577.601ZM375.222 558.88H383.478V554.88H375.222V558.88ZM381.478 556.88V590H385.478V556.88H381.478ZM383.478 588H376.566V592H383.478V588ZM378.566 590V569.072H374.566V590H378.566ZM374.755 568.224L366.979 584.832L370.602 586.528L378.378 569.92L374.755 568.224ZM368.79 583.68H363.03V587.68H368.79V583.68ZM364.842 584.832L357.066 568.224L353.443 569.92L361.219 586.528L364.842 584.832ZM353.254 569.072V590H357.254V569.072H353.254ZM355.254 588H348.342V592H355.254V588ZM388.302 588.704L386.391 588.113L386.637 589.813L388.302 588.704ZM398.142 556.88V554.88L396.231 556.289L398.142 556.88ZM408.702 556.88L410.612 556.289L408.702 554.88V556.88ZM418.542 588.704L420.206 589.813L420.452 588.113L418.542 588.704ZM417.678 590V592L419.342 591.109L417.678 590ZM411.918 590L410.002 590.575L411.918 592V590ZM409.902 583.28L411.817 582.705L409.902 581.28V583.28ZM396.942 583.28V581.28L395.026 582.705L396.942 583.28ZM394.926 590V592L396.841 590.575L394.926 590ZM389.166 590L387.501 591.109L389.166 592V590ZM398.814 577.04L396.9 576.459L398.814 579.04V577.04ZM408.03 577.04V579.04L409.943 576.459L408.03 577.04ZM403.806 563.12L405.719 562.539L403.806 561.12V563.12ZM403.038 563.12V561.12L401.124 562.539L403.038 563.12ZM390.212 589.295L400.052 557.471L396.231 556.289L386.391 588.113L390.212 589.295ZM398.142 558.88H408.702V554.88H398.142V558.88ZM406.791 557.471L416.631 589.295L420.452 588.113L410.612 556.289L406.791 557.471ZM416.877 587.595L416.013 588.891L419.342 591.109L420.206 589.813L416.877 587.595ZM417.678 588H411.918V592H417.678V588ZM413.833 589.425L411.817 582.705L407.986 583.855L410.002 590.575L413.833 589.425ZM409.902 581.28H396.942V585.28H409.902V581.28ZM395.026 582.705L393.01 589.425L396.841 590.575L398.857 583.855L395.026 582.705ZM394.926 588H389.166V592H394.926V588ZM390.83 588.891L389.966 587.595L386.637 589.813L387.501 591.109L390.83 588.891ZM398.814 579.04H408.03V575.04H398.814V579.04ZM409.943 576.459L405.719 562.539L401.892 563.701L406.116 577.621L409.943 576.459ZM403.806 561.12H403.038V565.12H403.806V561.12ZM401.124 562.539L396.9 576.459L400.727 577.621L404.951 563.701L401.124 562.539ZM423.342 590H421.342L423.342 592V590ZM423.342 556.88V554.88L421.342 556.88H423.342ZM430.83 556.88L432.542 555.845L430.83 554.88V556.88ZM443.982 578.624L442.271 579.659L445.982 578.624H443.982ZM443.982 556.88V554.88L441.982 556.88H443.982ZM450.894 556.88H452.894L450.894 554.88V556.88ZM450.894 590V592L452.894 590H450.894ZM443.406 590L441.695 591.035L443.406 592V590ZM430.254 568.256L431.966 567.221L428.254 568.256H430.254ZM430.254 590V592L432.254 590H430.254ZM425.342 590V556.88H421.342V590H425.342ZM423.342 558.88H430.83V554.88H423.342V558.88ZM429.119 557.915L442.271 579.659L445.694 577.589L432.542 555.845L429.119 557.915ZM445.982 578.624V556.88H441.982V578.624H445.982ZM443.982 558.88H450.894V554.88H443.982V558.88ZM448.894 556.88V590H452.894V556.88H448.894ZM450.894 588H443.406V592H450.894V588ZM445.118 588.965L431.966 567.221L428.543 569.291L441.695 591.035L445.118 588.965ZM428.254 568.256V590H432.254V568.256H428.254ZM430.254 588H423.342V592H430.254V588ZM455.708 588.704L453.797 588.113L454.044 589.813L455.708 588.704ZM465.548 556.88V554.88L463.637 556.289L465.548 556.88ZM476.108 556.88L478.018 556.289L476.108 554.88V556.88ZM485.948 588.704L487.612 589.813L487.858 588.113L485.948 588.704ZM485.084 590V592L486.748 591.109L485.084 590ZM479.324 590L477.408 590.575L479.324 592V590ZM477.308 583.28L479.223 582.705L477.308 581.28V583.28ZM464.348 583.28V581.28L462.432 582.705L464.348 583.28ZM462.332 590V592L464.247 590.575L462.332 590ZM456.572 590L454.908 591.109L456.572 592V590ZM466.22 577.04L464.306 576.459L466.22 579.04V577.04ZM475.436 577.04V579.04L477.35 576.459L475.436 577.04ZM471.212 563.12L473.126 562.539L471.212 561.12V563.12ZM470.444 563.12V561.12L468.53 562.539L470.444 563.12ZM457.618 589.295L467.458 557.471L463.637 556.289L453.797 588.113L457.618 589.295ZM465.548 558.88H476.108V554.88H465.548V558.88ZM474.197 557.471L484.037 589.295L487.858 588.113L478.018 556.289L474.197 557.471ZM484.284 587.595L483.42 588.891L486.748 591.109L487.612 589.813L484.284 587.595ZM485.084 588H479.324V592H485.084V588ZM481.239 589.425L479.223 582.705L475.392 583.855L477.408 590.575L481.239 589.425ZM477.308 581.28H464.348V585.28H477.308V581.28ZM462.432 582.705L460.416 589.425L464.247 590.575L466.263 583.855L462.432 582.705ZM462.332 588H456.572V592H462.332V588ZM458.236 588.891L457.372 587.595L454.044 589.813L454.908 591.109L458.236 588.891ZM466.22 579.04H475.436V575.04H466.22V579.04ZM477.35 576.459L473.126 562.539L469.298 563.701L473.522 577.621L477.35 576.459ZM471.212 561.12H470.444V565.12H471.212V561.12ZM468.53 562.539L464.306 576.459L468.134 577.621L472.358 563.701L468.53 562.539ZM512.205 556.88L513.431 555.3L512.205 554.88V556.88ZM515.421 559.376H517.421L516.647 557.796L515.421 559.376ZM515.421 563.12V565.12L517.421 563.12H515.421ZM509.469 583.76V585.76L511.469 583.76H509.469ZM509.469 576.08H511.469L509.469 574.08V576.08ZM503.133 576.08H501.133L503.133 578.08V576.08ZM503.133 569.84V567.84L501.133 569.84H503.133ZM516.381 569.84H518.381L516.381 567.84V569.84ZM516.381 590V592L518.381 590H516.381ZM492.269 581.936V564.944H488.269V581.936H492.269ZM492.269 564.944C492.269 562.564 492.862 561.147 493.699 560.31C494.535 559.474 495.953 558.88 498.333 558.88V554.88C495.336 554.88 492.722 555.63 490.87 557.482C489.019 559.333 488.269 561.948 488.269 564.944H492.269ZM498.333 558.88H512.205V554.88H498.333V558.88ZM510.978 558.46L514.194 560.956L516.647 557.796L513.431 555.3L510.978 558.46ZM513.421 559.376V563.12H517.421V559.376H513.421ZM515.421 561.12H498.621V565.12H515.421V561.12ZM498.621 561.12C497.832 561.12 496.874 561.318 496.126 562.066C495.379 562.813 495.181 563.772 495.181 564.56H499.181C499.181 564.388 499.222 564.627 498.955 564.894C498.687 565.162 498.449 565.12 498.621 565.12V561.12ZM495.181 564.56V582.32H499.181V564.56H495.181ZM495.181 582.32C495.181 583.108 495.379 584.067 496.126 584.814C496.874 585.562 497.832 585.76 498.621 585.76V581.76C498.449 581.76 498.687 581.718 498.955 581.986C499.222 582.253 499.181 582.492 499.181 582.32H495.181ZM498.621 585.76H509.469V581.76H498.621V585.76ZM511.469 583.76V576.08H507.469V583.76H511.469ZM509.469 574.08H503.133V578.08H509.469V574.08ZM505.133 576.08V569.84H501.133V576.08H505.133ZM503.133 571.84H516.381V567.84H503.133V571.84ZM514.381 569.84V590H518.381V569.84H514.381ZM516.381 588H498.333V592H516.381V588ZM498.333 588C495.953 588 494.535 587.406 493.699 586.57C492.862 585.733 492.269 584.316 492.269 581.936H488.269C488.269 584.932 489.019 587.547 490.87 589.398C492.722 591.25 495.336 592 498.333 592V588ZM523.28 590H521.28L523.28 592V590ZM523.28 556.88V554.88L521.28 556.88H523.28ZM545.936 556.88H547.936L545.936 554.88V556.88ZM545.936 563.12V565.12L547.936 563.12H545.936ZM530.192 563.12V561.12L528.192 563.12H530.192ZM530.192 569.84H528.192L530.192 571.84V569.84ZM544.496 569.84H546.496L544.496 567.84V569.84ZM544.496 576.08V578.08L546.496 576.08H544.496ZM530.192 576.08V574.08L528.192 576.08H530.192ZM530.192 583.76H528.192L530.192 585.76V583.76ZM545.936 583.76H547.936L545.936 581.76V583.76ZM545.936 590V592L547.936 590H545.936ZM525.28 590V556.88H521.28V590H525.28ZM523.28 558.88H545.936V554.88H523.28V558.88ZM543.936 556.88V563.12H547.936V556.88H543.936ZM545.936 561.12H530.192V565.12H545.936V561.12ZM528.192 563.12V569.84H532.192V563.12H528.192ZM530.192 571.84H544.496V567.84H530.192V571.84ZM542.496 569.84V576.08H546.496V569.84H542.496ZM544.496 574.08H530.192V578.08H544.496V574.08ZM528.192 576.08V583.76H532.192V576.08H528.192ZM530.192 585.76H545.936V581.76H530.192V585.76ZM543.936 583.76V590H547.936V583.76H543.936ZM545.936 588H523.28V592H545.936V588ZM552.249 590H550.249L552.249 592V590ZM552.249 556.88V554.88L550.249 556.88H552.249ZM560.505 556.88L562.316 556.031L560.505 554.88V556.88ZM569.817 576.752L568.005 577.601H571.628L569.817 576.752ZM579.129 556.88V554.88L577.317 556.031L579.129 556.88ZM587.385 556.88H589.385L587.385 554.88V556.88ZM587.385 590V592L589.385 590H587.385ZM580.473 590H578.473L580.473 592V590ZM580.473 569.072H582.473L578.661 568.224L580.473 569.072ZM572.697 585.68V587.68L574.508 586.528L572.697 585.68ZM566.937 585.68L565.125 586.528L566.937 587.68V585.68ZM559.161 569.072L560.972 568.224L557.161 569.072H559.161ZM559.161 590V592L561.161 590H559.161ZM554.249 590V556.88H550.249V590H554.249ZM552.249 558.88H560.505V554.88H552.249V558.88ZM558.693 557.729L568.005 577.601L571.628 575.903L562.316 556.031L558.693 557.729ZM571.628 577.601L580.94 557.729L577.317 556.031L568.005 575.903L571.628 577.601ZM579.129 558.88H587.385V554.88H579.129V558.88ZM585.385 556.88V590H589.385V556.88H585.385ZM587.385 588H580.473V592H587.385V588ZM582.473 590V569.072H578.473V590H582.473ZM578.661 568.224L570.885 584.832L574.508 586.528L582.284 569.92L578.661 568.224ZM572.697 583.68H566.937V587.68H572.697V583.68ZM568.748 584.832L560.972 568.224L557.349 569.92L565.125 586.528L568.748 584.832ZM557.161 569.072V590H561.161V569.072H557.161ZM559.161 588H552.249V592H559.161V588ZM595.28 590H593.28L595.28 592V590ZM595.28 556.88V554.88L593.28 556.88H595.28ZM617.936 556.88H619.936L617.936 554.88V556.88ZM617.936 563.12V565.12L619.936 563.12H617.936ZM602.192 563.12V561.12L600.192 563.12H602.192ZM602.192 569.84H600.192L602.192 571.84V569.84ZM616.496 569.84H618.496L616.496 567.84V569.84ZM616.496 576.08V578.08L618.496 576.08H616.496ZM602.192 576.08V574.08L600.192 576.08H602.192ZM602.192 583.76H600.192L602.192 585.76V583.76ZM617.936 583.76H619.936L617.936 581.76V583.76ZM617.936 590V592L619.936 590H617.936ZM597.28 590V556.88H593.28V590H597.28ZM595.28 558.88H617.936V554.88H595.28V558.88ZM615.936 556.88V563.12H619.936V556.88H615.936ZM617.936 561.12H602.192V565.12H617.936V561.12ZM600.192 563.12V569.84H604.192V563.12H600.192ZM602.192 571.84H616.496V567.84H602.192V571.84ZM614.496 569.84V576.08H618.496V569.84H614.496ZM616.496 574.08H602.192V578.08H616.496V574.08ZM600.192 576.08V583.76H604.192V576.08H600.192ZM602.192 585.76H617.936V581.76H602.192V585.76ZM615.936 583.76V590H619.936V583.76H615.936ZM617.936 588H595.28V592H617.936V588ZM624.249 590H622.249L624.249 592V590ZM624.249 556.88V554.88L622.249 556.88H624.249ZM631.737 556.88L633.448 555.845L631.737 554.88V556.88ZM644.889 578.624L643.177 579.659L646.889 578.624H644.889ZM644.889 556.88V554.88L642.889 556.88H644.889ZM651.801 556.88H653.801L651.801 554.88V556.88ZM651.801 590V592L653.801 590H651.801ZM644.312 590L642.601 591.035L644.312 592V590ZM631.161 568.256L632.872 567.221L629.161 568.256H631.161ZM631.161 590V592L633.161 590H631.161ZM626.249 590V556.88H622.249V590H626.249ZM624.249 558.88H631.737V554.88H624.249V558.88ZM630.025 557.915L643.177 579.659L646.6 577.589L633.448 555.845L630.025 557.915ZM646.889 578.624V556.88H642.889V578.624H646.889ZM644.889 558.88H651.801V554.88H644.889V558.88ZM649.801 556.88V590H653.801V556.88H649.801ZM651.801 588H644.312V592H651.801V588ZM646.024 588.965L632.872 567.221L629.449 569.291L642.601 591.035L646.024 588.965ZM629.161 568.256V590H633.161V568.256H629.161ZM631.161 588H624.249V592H631.161V588ZM656.902 563.12H654.902L656.902 565.12V563.12ZM656.902 556.88V554.88L654.902 556.88H656.902ZM683.974 556.88H685.974L683.974 554.88V556.88ZM683.974 563.12V565.12L685.974 563.12H683.974ZM673.894 563.12V561.12L671.894 563.12H673.894ZM673.894 590V592L675.894 590H673.894ZM666.982 590H664.982L666.982 592V590ZM666.982 563.12H668.982L666.982 561.12V563.12ZM658.902 563.12V556.88H654.902V563.12H658.902ZM656.902 558.88H683.974V554.88H656.902V558.88ZM681.974 556.88V563.12H685.974V556.88H681.974ZM683.974 561.12H673.894V565.12H683.974V561.12ZM671.894 563.12V590H675.894V563.12H671.894ZM673.894 588H666.982V592H673.894V588ZM668.982 590V563.12H664.982V590H668.982ZM666.982 561.12H656.902V565.12H666.982V561.12ZM698.016 558.176L696.409 556.986L696.056 558.575L698.016 558.176ZM698.976 556.88V554.88L697.369 555.69L698.976 556.88ZM704.64 556.88L706.602 556.491L704.64 554.88V556.88ZM709.968 583.76L708.006 584.149L709.968 585.76V583.76ZM710.496 583.76V585.76L712.44 584.228L710.496 583.76ZM716.208 560.048V558.048L714.263 559.58L716.208 560.048ZM723.024 560.048L724.968 559.58L723.024 558.048V560.048ZM728.736 583.76L726.791 584.228L728.736 585.76V583.76ZM729.264 583.76V585.76L731.226 584.149L729.264 583.76ZM734.592 556.88V554.88L732.63 556.491L734.592 556.88ZM740.256 556.88L741.863 555.69L740.256 554.88V556.88ZM741.216 558.176L743.176 558.575L742.823 556.986L741.216 558.176ZM734.736 590V592L736.696 590.399L734.736 590ZM723.744 590L721.797 590.459L723.744 592V590ZM719.616 572.48L721.563 572.021H717.669L719.616 572.48ZM715.488 590V592L717.435 590.459L715.488 590ZM704.496 590L702.536 590.399L704.496 592V590ZM699.623 559.366L700.583 558.07L697.369 555.69L696.409 556.986L699.623 559.366ZM698.976 558.88H704.64V554.88H698.976V558.88ZM702.678 557.269L708.006 584.149L711.93 583.371L706.602 556.491L702.678 557.269ZM709.968 585.76H710.496V581.76H709.968V585.76ZM712.44 584.228L718.152 560.516L714.263 559.58L708.551 583.292L712.44 584.228ZM716.208 562.048H723.024V558.048H716.208V562.048ZM721.079 560.516L726.791 584.228L730.68 583.292L724.968 559.58L721.079 560.516ZM728.736 585.76H729.264V581.76H728.736V585.76ZM731.226 584.149L736.554 557.269L732.63 556.491L727.302 583.371L731.226 584.149ZM734.592 558.88H740.256V554.88H734.592V558.88ZM738.649 558.07L739.609 559.366L742.823 556.986L741.863 555.69L738.649 558.07ZM739.256 557.777L732.776 589.601L736.696 590.399L743.176 558.575L739.256 557.777ZM734.736 588H723.744V592H734.736V588ZM725.691 589.541L721.563 572.021L717.669 572.939L721.797 590.459L725.691 589.541ZM717.669 572.021L713.541 589.541L717.435 590.459L721.563 572.939L717.669 572.021ZM715.488 588H704.496V592H715.488V588ZM706.456 589.601L699.976 557.777L696.056 558.575L702.536 590.399L706.456 589.601ZM746.499 590H744.499L746.499 592V590ZM746.499 556.88V554.88L744.499 556.88H746.499ZM769.155 556.88H771.155L769.155 554.88V556.88ZM769.155 563.12V565.12L771.155 563.12H769.155ZM753.411 563.12V561.12L751.411 563.12H753.411ZM753.411 569.84H751.411L753.411 571.84V569.84ZM767.715 569.84H769.715L767.715 567.84V569.84ZM767.715 576.08V578.08L769.715 576.08H767.715ZM753.411 576.08V574.08L751.411 576.08H753.411ZM753.411 583.76H751.411L753.411 585.76V583.76ZM769.155 583.76H771.155L769.155 581.76V583.76ZM769.155 590V592L771.155 590H769.155ZM748.499 590V556.88H744.499V590H748.499ZM746.499 558.88H769.155V554.88H746.499V558.88ZM767.155 556.88V563.12H771.155V556.88H767.155ZM769.155 561.12H753.411V565.12H769.155V561.12ZM751.411 563.12V569.84H755.411V563.12H751.411ZM753.411 571.84H767.715V567.84H753.411V571.84ZM765.715 569.84V576.08H769.715V569.84H765.715ZM767.715 574.08H753.411V578.08H767.715V574.08ZM751.411 576.08V583.76H755.411V576.08H751.411ZM753.411 585.76H769.155V581.76H753.411V585.76ZM767.155 583.76V590H771.155V583.76H767.155ZM769.155 588H746.499V592H769.155V588ZM775.467 590H773.467L775.467 592V590ZM775.467 556.88V554.88L773.467 556.88H775.467ZM798.219 570.608L799.756 571.888L799.756 571.888L798.219 570.608ZM796.539 572.624L795.003 571.344L795.259 574.16L796.539 572.624ZM798.555 574.304L797.275 575.84L797.289 575.852L798.555 574.304ZM782.379 583.76H780.379L782.379 585.76V583.76ZM782.379 576.08V574.08L780.379 576.08H782.379ZM782.379 569.84H780.379L782.379 571.84V569.84ZM782.379 563.12V561.12L780.379 563.12H782.379ZM777.467 590V556.88H773.467V590H777.467ZM775.467 558.88H791.115V554.88H775.467V558.88ZM791.115 558.88C793.495 558.88 794.912 559.474 795.749 560.31C796.586 561.147 797.179 562.564 797.179 564.944H801.179C801.179 561.948 800.429 559.333 798.577 557.482C796.726 555.63 794.112 554.88 791.115 554.88V558.88ZM797.179 564.944V567.824H801.179V564.944H797.179ZM797.179 567.824C797.179 568.488 796.996 568.952 796.683 569.328L799.756 571.888C800.722 570.728 801.179 569.336 801.179 567.824H797.179ZM796.683 569.328L795.003 571.344L798.076 573.904L799.756 571.888L796.683 569.328ZM795.259 574.16L797.275 575.84L799.836 572.768L797.82 571.088L795.259 574.16ZM797.289 575.852C797.77 576.245 798.139 576.888 798.139 578.144H802.139C802.139 576.008 801.453 574.091 799.822 572.756L797.289 575.852ZM798.139 578.144V581.936H802.139V578.144H798.139ZM798.139 581.936C798.139 584.316 797.546 585.733 796.709 586.57C795.872 587.406 794.455 588 792.075 588V592C795.072 592 797.686 591.25 799.537 589.398C801.389 587.547 802.139 584.932 802.139 581.936H798.139ZM792.075 588H775.467V592H792.075V588ZM782.379 585.76H791.787V581.76H782.379V585.76ZM791.787 585.76C792.576 585.76 793.534 585.562 794.281 584.814C795.029 584.067 795.227 583.108 795.227 582.32H791.227C791.227 582.492 791.186 582.253 791.453 581.986C791.72 581.718 791.959 581.76 791.787 581.76V585.76ZM795.227 582.32V577.52H791.227V582.32H795.227ZM795.227 577.52C795.227 576.732 795.029 575.773 794.281 575.026C793.534 574.278 792.576 574.08 791.787 574.08V578.08C791.959 578.08 791.72 578.122 791.453 577.854C791.186 577.587 791.227 577.348 791.227 577.52H795.227ZM791.787 574.08H782.379V578.08H791.787V574.08ZM780.379 576.08V583.76H784.379V576.08H780.379ZM782.379 571.84H790.827V567.84H782.379V571.84ZM790.827 571.84C791.616 571.84 792.574 571.642 793.321 570.894C794.069 570.147 794.267 569.188 794.267 568.4H790.267C790.267 568.572 790.226 568.333 790.493 568.066C790.76 567.798 790.999 567.84 790.827 567.84V571.84ZM794.267 568.4V564.56H790.267V568.4H794.267ZM794.267 564.56C794.267 563.772 794.069 562.813 793.321 562.066C792.574 561.318 791.616 561.12 790.827 561.12V565.12C790.999 565.12 790.76 565.162 790.493 564.894C790.226 564.627 790.267 564.388 790.267 564.56H794.267ZM790.827 561.12H782.379V565.12H790.827V561.12ZM780.379 563.12V569.84H784.379V563.12H780.379ZM815.239 588.704L813.328 588.113L813.575 589.813L815.239 588.704ZM825.079 556.88V554.88L823.168 556.289L825.079 556.88ZM835.639 556.88L837.55 556.289L835.639 554.88V556.88ZM845.479 588.704L847.143 589.813L847.39 588.113L845.479 588.704ZM844.615 590V592L846.279 591.109L844.615 590ZM838.855 590L836.939 590.575L838.855 592V590ZM836.839 583.28L838.755 582.705L836.839 581.28V583.28ZM823.879 583.28V581.28L821.963 582.705L823.879 583.28ZM821.863 590V592L823.779 590.575L821.863 590ZM816.103 590L814.439 591.109L816.103 592V590ZM825.751 577.04L823.837 576.459L825.751 579.04V577.04ZM834.967 577.04V579.04L836.881 576.459L834.967 577.04ZM830.743 563.12L832.657 562.539L830.743 561.12V563.12ZM829.975 563.12V561.12L828.061 562.539L829.975 563.12ZM817.15 589.295L826.99 557.471L823.168 556.289L813.328 588.113L817.15 589.295ZM825.079 558.88H835.639V554.88H825.079V558.88ZM833.728 557.471L843.568 589.295L847.39 588.113L837.55 556.289L833.728 557.471ZM843.815 587.595L842.951 588.891L846.279 591.109L847.143 589.813L843.815 587.595ZM844.615 588H838.855V592H844.615V588ZM840.771 589.425L838.755 582.705L834.923 583.855L836.939 590.575L840.771 589.425ZM836.839 581.28H823.879V585.28H836.839V581.28ZM821.963 582.705L819.947 589.425L823.779 590.575L825.795 583.855L821.963 582.705ZM821.863 588H816.103V592H821.863V588ZM817.767 588.891L816.903 587.595L813.575 589.813L814.439 591.109L817.767 588.891ZM825.751 579.04H834.967V575.04H825.751V579.04ZM836.881 576.459L832.657 562.539L828.829 563.701L833.053 577.621L836.881 576.459ZM830.743 561.12H829.975V565.12H830.743V561.12ZM828.061 562.539L823.837 576.459L827.665 577.621L831.889 563.701L828.061 562.539ZM850.28 590H848.28L850.28 592V590ZM850.28 556.88V554.88L848.28 556.88H850.28ZM857.192 579.44V577.44L855.192 579.44H857.192ZM857.192 590V592L859.192 590H857.192ZM857.192 573.2H855.192L857.192 575.2V573.2ZM857.192 563.12V561.12L855.192 563.12H857.192ZM852.28 590V556.88H848.28V590H852.28ZM850.28 558.88H866.408V554.88H850.28V558.88ZM866.408 558.88C868.787 558.88 870.205 559.474 871.042 560.31C871.878 561.147 872.472 562.564 872.472 564.944H876.472C876.472 561.948 875.721 559.333 873.87 557.482C872.019 555.63 869.404 554.88 866.408 554.88V558.88ZM872.472 564.944V571.376H876.472V564.944H872.472ZM872.472 571.376C872.472 573.756 871.878 575.173 871.042 576.01C870.205 576.846 868.787 577.44 866.408 577.44V581.44C869.404 581.44 872.019 580.69 873.87 578.838C875.721 576.987 876.472 574.372 876.472 571.376H872.472ZM866.408 577.44H857.192V581.44H866.408V577.44ZM855.192 579.44V590H859.192V579.44H855.192ZM857.192 588H850.28V592H857.192V588ZM857.192 575.2H866.12V571.2H857.192V575.2ZM866.12 575.2C866.908 575.2 867.867 575.002 868.614 574.254C869.361 573.507 869.56 572.548 869.56 571.76H865.56C865.56 571.932 865.518 571.693 865.786 571.426C866.053 571.158 866.291 571.2 866.12 571.2V575.2ZM869.56 571.76V564.56H865.56V571.76H869.56ZM869.56 564.56C869.56 563.772 869.361 562.813 868.614 562.066C867.867 561.318 866.908 561.12 866.12 561.12V565.12C866.291 565.12 866.053 565.162 865.786 564.894C865.518 564.627 865.56 564.388 865.56 564.56H869.56ZM866.12 561.12H857.192V565.12H866.12V561.12ZM855.192 563.12V573.2H859.192V563.12H855.192ZM880.889 590H878.889L880.889 592V590ZM880.889 556.88V554.88L878.889 556.88H880.889ZM887.801 579.44V577.44L885.801 579.44H887.801ZM887.801 590V592L889.801 590H887.801ZM887.801 573.2H885.801L887.801 575.2V573.2ZM887.801 563.12V561.12L885.801 563.12H887.801ZM882.889 590V556.88H878.889V590H882.889ZM880.889 558.88H897.017V554.88H880.889V558.88ZM897.017 558.88C899.397 558.88 900.814 559.474 901.651 560.31C902.488 561.147 903.081 562.564 903.081 564.944H907.081C907.081 561.948 906.331 559.333 904.479 557.482C902.628 555.63 900.013 554.88 897.017 554.88V558.88ZM903.081 564.944V571.376H907.081V564.944H903.081ZM903.081 571.376C903.081 573.756 902.488 575.173 901.651 576.01C900.814 576.846 899.397 577.44 897.017 577.44V581.44C900.013 581.44 902.628 580.69 904.479 578.838C906.331 576.987 907.081 574.372 907.081 571.376H903.081ZM897.017 577.44H887.801V581.44H897.017V577.44ZM885.801 579.44V590H889.801V579.44H885.801ZM887.801 588H880.889V592H887.801V588ZM887.801 575.2H896.729V571.2H887.801V575.2ZM896.729 575.2C897.517 575.2 898.476 575.002 899.223 574.254C899.971 573.507 900.169 572.548 900.169 571.76H896.169C896.169 571.932 896.128 571.693 896.395 571.426C896.662 571.158 896.901 571.2 896.729 571.2V575.2ZM900.169 571.76V564.56H896.169V571.76H900.169ZM900.169 564.56C900.169 563.772 899.971 562.813 899.223 562.066C898.476 561.318 897.517 561.12 896.729 561.12V565.12C896.901 565.12 896.662 565.162 896.395 564.894C896.128 564.627 896.169 564.388 896.169 564.56H900.169ZM896.729 561.12H887.801V565.12H896.729V561.12ZM885.801 563.12V573.2H889.801V563.12H885.801ZM911.499 590H909.499L911.499 592V590ZM911.499 556.88V554.88L909.499 556.88H911.499ZM918.411 556.88H920.411L918.411 554.88V556.88ZM918.411 583.76H916.411L918.411 585.76V583.76ZM932.715 583.76H934.715L932.715 581.76V583.76ZM932.715 590V592L934.715 590H932.715ZM913.499 590V556.88H909.499V590H913.499ZM911.499 558.88H918.411V554.88H911.499V558.88ZM916.411 556.88V583.76H920.411V556.88H916.411ZM918.411 585.76H932.715V581.76H918.411V585.76ZM930.715 583.76V590H934.715V583.76H930.715ZM932.715 588H911.499V592H932.715V588ZM937.795 590H935.795L937.795 592V590ZM937.795 556.88V554.88L935.795 556.88H937.795ZM944.707 556.88H946.707L944.707 554.88V556.88ZM944.707 590V592L946.707 590H944.707ZM939.795 590V556.88H935.795V590H939.795ZM937.795 558.88H944.707V554.88H937.795V558.88ZM942.707 556.88V590H946.707V556.88H942.707ZM944.707 588H937.795V592H944.707V588ZM972.961 556.88L974.187 555.3L972.961 554.88V556.88ZM976.177 559.376H978.177L977.403 557.796L976.177 559.376ZM976.177 563.12V565.12L978.177 563.12H976.177ZM976.177 583.76H978.177L976.177 581.76V583.76ZM976.177 587.504L977.403 589.084L978.177 587.504H976.177ZM972.961 590V592L974.187 591.58L972.961 590ZM954.081 581.936V564.944H950.081V581.936H954.081ZM954.081 564.944C954.081 562.564 954.675 561.147 955.511 560.31C956.348 559.474 957.765 558.88 960.145 558.88V554.88C957.149 554.88 954.534 555.63 952.683 557.482C950.831 559.333 950.081 561.948 950.081 564.944H954.081ZM960.145 558.88H972.961V554.88H960.145V558.88ZM971.735 558.46L974.951 560.956L977.403 557.796L974.187 555.3L971.735 558.46ZM974.177 559.376V563.12H978.177V559.376H974.177ZM976.177 561.12H960.433V565.12H976.177V561.12ZM960.433 561.12C959.645 561.12 958.686 561.318 957.939 562.066C957.191 562.813 956.993 563.772 956.993 564.56H960.993C960.993 564.388 961.035 564.627 960.767 564.894C960.5 565.162 960.261 565.12 960.433 565.12V561.12ZM956.993 564.56V582.32H960.993V564.56H956.993ZM956.993 582.32C956.993 583.108 957.191 584.067 957.939 584.814C958.686 585.562 959.645 585.76 960.433 585.76V581.76C960.261 581.76 960.5 581.718 960.767 581.986C961.035 582.253 960.993 582.492 960.993 582.32H956.993ZM960.433 585.76H976.177V581.76H960.433V585.76ZM974.177 583.76V587.504H978.177V583.76H974.177ZM974.951 585.924L971.735 588.42L974.187 591.58L977.403 589.084L974.951 585.924ZM972.961 588H960.145V592H972.961V588ZM960.145 588C957.765 588 956.348 587.406 955.511 586.57C954.675 585.733 954.081 584.316 954.081 581.936H950.081C950.081 584.932 950.831 587.547 952.683 589.398C954.534 591.25 957.149 592 960.145 592V588ZM979.442 588.704L977.531 588.113L977.778 589.813L979.442 588.704ZM989.282 556.88V554.88L987.371 556.289L989.282 556.88ZM999.842 556.88L1001.75 556.289L999.842 554.88V556.88ZM1009.68 588.704L1011.35 589.813L1011.59 588.113L1009.68 588.704ZM1008.82 590V592L1010.48 591.109L1008.82 590ZM1003.06 590L1001.14 590.575L1003.06 592V590ZM1001.04 583.28L1002.96 582.705L1001.04 581.28V583.28ZM988.082 583.28V581.28L986.166 582.705L988.082 583.28ZM986.066 590V592L987.982 590.575L986.066 590ZM980.306 590L978.642 591.109L980.306 592V590ZM989.954 577.04L988.04 576.459L989.954 579.04V577.04ZM999.17 577.04V579.04L1001.08 576.459L999.17 577.04ZM994.946 563.12L996.86 562.539L994.946 561.12V563.12ZM994.178 563.12V561.12L992.264 562.539L994.178 563.12ZM981.353 589.295L991.193 557.471L987.371 556.289L977.531 588.113L981.353 589.295ZM989.282 558.88H999.842V554.88H989.282V558.88ZM997.931 557.471L1007.77 589.295L1011.59 588.113L1001.75 556.289L997.931 557.471ZM1008.02 587.595L1007.15 588.891L1010.48 591.109L1011.35 589.813L1008.02 587.595ZM1008.82 588H1003.06V592H1008.82V588ZM1004.97 589.425L1002.96 582.705L999.126 583.855L1001.14 590.575L1004.97 589.425ZM1001.04 581.28H988.082V585.28H1001.04V581.28ZM986.166 582.705L984.15 589.425L987.982 590.575L989.998 583.855L986.166 582.705ZM986.066 588H980.306V592H986.066V588ZM981.97 588.891L981.106 587.595L977.778 589.813L978.642 591.109L981.97 588.891ZM989.954 579.04H999.17V575.04H989.954V579.04ZM1001.08 576.459L996.86 562.539L993.032 563.701L997.256 577.621L1001.08 576.459ZM994.946 561.12H994.178V565.12H994.946V561.12ZM992.264 562.539L988.04 576.459L991.868 577.621L996.092 563.701L992.264 562.539ZM1009.31 563.12H1007.31L1009.31 565.12V563.12ZM1009.31 556.88V554.88L1007.31 556.88H1009.31ZM1036.38 556.88H1038.38L1036.38 554.88V556.88ZM1036.38 563.12V565.12L1038.38 563.12H1036.38ZM1026.3 563.12V561.12L1024.3 563.12H1026.3ZM1026.3 590V592L1028.3 590H1026.3ZM1019.39 590H1017.39L1019.39 592V590ZM1019.39 563.12H1021.39L1019.39 561.12V563.12ZM1011.31 563.12V556.88H1007.31V563.12H1011.31ZM1009.31 558.88H1036.38V554.88H1009.31V558.88ZM1034.38 556.88V563.12H1038.38V556.88H1034.38ZM1036.38 561.12H1026.3V565.12H1036.38V561.12ZM1024.3 563.12V590H1028.3V563.12H1024.3ZM1026.3 588H1019.39V592H1026.3V588ZM1021.39 590V563.12H1017.39V590H1021.39ZM1019.39 561.12H1009.31V565.12H1019.39V561.12ZM1041.48 590H1039.48L1041.48 592V590ZM1041.48 556.88V554.88L1039.48 556.88H1041.48ZM1048.39 556.88H1050.39L1048.39 554.88V556.88ZM1048.39 590V592L1050.39 590H1048.39ZM1043.48 590V556.88H1039.48V590H1043.48ZM1041.48 558.88H1048.39V554.88H1041.48V558.88ZM1046.39 556.88V590H1050.39V556.88H1046.39ZM1048.39 588H1041.48V592H1048.39V588ZM1057.77 581.936V564.944H1053.77V581.936H1057.77ZM1057.77 564.944C1057.77 562.564 1058.36 561.147 1059.2 560.31C1060.04 559.474 1061.45 558.88 1063.83 558.88V554.88C1060.84 554.88 1058.22 555.63 1056.37 557.482C1054.52 559.333 1053.77 561.948 1053.77 564.944H1057.77ZM1063.83 558.88H1074.78V554.88H1063.83V558.88ZM1074.78 558.88C1077.16 558.88 1078.57 559.474 1079.41 560.31C1080.25 561.147 1080.84 562.564 1080.84 564.944H1084.84C1084.84 561.948 1084.09 559.333 1082.24 557.482C1080.39 555.63 1077.77 554.88 1074.78 554.88V558.88ZM1080.84 564.944V581.936H1084.84V564.944H1080.84ZM1080.84 581.936C1080.84 584.316 1080.25 585.733 1079.41 586.57C1078.57 587.406 1077.16 588 1074.78 588V592C1077.77 592 1080.39 591.25 1082.24 589.398C1084.09 587.547 1084.84 584.932 1084.84 581.936H1080.84ZM1074.78 588H1063.83V592H1074.78V588ZM1063.83 588C1061.45 588 1060.04 587.406 1059.2 586.57C1058.36 585.733 1057.77 584.316 1057.77 581.936H1053.77C1053.77 584.932 1054.52 587.547 1056.37 589.398C1058.22 591.25 1060.84 592 1063.83 592V588ZM1060.68 582.32C1060.68 583.108 1060.88 584.067 1061.63 584.814C1062.37 585.562 1063.33 585.76 1064.12 585.76V581.76C1063.95 581.76 1064.19 581.718 1064.45 581.986C1064.72 582.253 1064.68 582.492 1064.68 582.32H1060.68ZM1064.12 585.76H1074.49V581.76H1064.12V585.76ZM1074.49 585.76C1075.28 585.76 1076.24 585.562 1076.98 584.814C1077.73 584.067 1077.93 583.108 1077.93 582.32H1073.93C1073.93 582.492 1073.89 582.253 1074.15 581.986C1074.42 581.718 1074.66 581.76 1074.49 581.76V585.76ZM1077.93 582.32V564.56H1073.93V582.32H1077.93ZM1077.93 564.56C1077.93 563.772 1077.73 562.813 1076.98 562.066C1076.24 561.318 1075.28 561.12 1074.49 561.12V565.12C1074.66 565.12 1074.42 565.162 1074.15 564.894C1073.89 564.627 1073.93 564.388 1073.93 564.56H1077.93ZM1074.49 561.12H1064.12V565.12H1074.49V561.12ZM1064.12 561.12C1063.33 561.12 1062.37 561.318 1061.63 562.066C1060.88 562.813 1060.68 563.772 1060.68 564.56H1064.68C1064.68 564.388 1064.72 564.627 1064.45 564.894C1064.19 565.162 1063.95 565.12 1064.12 565.12V561.12ZM1060.68 564.56V582.32H1064.68V564.56H1060.68ZM1090.23 590H1088.23L1090.23 592V590ZM1090.23 556.88V554.88L1088.23 556.88H1090.23ZM1097.72 556.88L1099.43 555.845L1097.72 554.88V556.88ZM1110.87 578.624L1109.16 579.659L1112.87 578.624H1110.87ZM1110.87 556.88V554.88L1108.87 556.88H1110.87ZM1117.78 556.88H1119.78L1117.78 554.88V556.88ZM1117.78 590V592L1119.78 590H1117.78ZM1110.3 590L1108.59 591.035L1110.3 592V590ZM1097.14 568.256L1098.86 567.221L1095.14 568.256H1097.14ZM1097.14 590V592L1099.14 590H1097.14ZM1092.23 590V556.88H1088.23V590H1092.23ZM1090.23 558.88H1097.72V554.88H1090.23V558.88ZM1096.01 557.915L1109.16 579.659L1112.58 577.589L1099.43 555.845L1096.01 557.915ZM1112.87 578.624V556.88H1108.87V578.624H1112.87ZM1110.87 558.88H1117.78V554.88H1110.87V558.88ZM1115.78 556.88V590H1119.78V556.88H1115.78ZM1117.78 588H1110.3V592H1117.78V588ZM1112.01 588.965L1098.86 567.221L1095.43 569.291L1108.59 591.035L1112.01 588.965ZM1095.14 568.256V590H1099.14V568.256H1095.14ZM1097.14 588H1090.23V592H1097.14V588Z" fill="#1976D2" fill-opacity="0.77"/>
<defs>
<filter id="filter0_bf_2_27" x="519" y="25" width="276" height="276" filterUnits="userSpaceOnUse" color-interpolation-filters="sRGB">
<feFlood flood-opacity="0" result="BackgroundImageFix"/>
<feGaussianBlur in="BackgroundImage" stdDeviation="5"/>
<feComposite in2="SourceAlpha" operator="in" result="effect1_backgroundBlur_2_27"/>
<feBlend mode="normal" in="SourceGraphic" in2="effect1_backgroundBlur_2_27" result="shape"/>
<feGaussianBlur stdDeviation="5" result="effect2_foregroundBlur_2_27"/>
</filter>
</defs>
</svg>
